# Blender v2.74 (sub 0) OBJ File: 'BRAZIER.blend'
# www.blender.org
mtllib Coal_LP_Final.mtl
o Sphere.001_Sphere.000
v -0.082797 0.335767 -0.030444
v -0.153791 0.316543 -0.056284
v -0.201228 0.287773 -0.073550
v -0.217886 0.253836 -0.079613
v -0.067322 0.335767 -0.057248
v -0.125197 0.316543 -0.105811
v -0.163868 0.287773 -0.138259
v -0.177447 0.253836 -0.149654
v -0.043613 0.335767 -0.077143
v -0.081388 0.316543 -0.142571
v -0.106629 0.287773 -0.186289
v -0.115492 0.253836 -0.201641
v -0.014529 0.335767 -0.087728
v -0.027648 0.316543 -0.162131
v -0.036414 0.287773 -0.211845
v -0.039493 0.253836 -0.229302
v 0.016421 0.335767 -0.087728
v 0.029540 0.316543 -0.162131
v 0.038306 0.287773 -0.211845
v 0.041384 0.253836 -0.229302
v 0.045505 0.335767 -0.077142
v 0.083280 0.316543 -0.142571
v 0.108520 0.287773 -0.186289
v 0.117384 0.253836 -0.201641
v 0.000946 0.342517 0.000036
v 0.069214 0.335767 -0.057248
v 0.127089 0.316543 -0.105811
v 0.165760 0.287773 -0.138260
v 0.179339 0.253836 -0.149654
v 0.084689 0.335767 -0.030444
v 0.155683 0.316543 -0.056284
v 0.203120 0.287773 -0.073550
v 0.219777 0.253836 -0.079613
v 0.090063 0.335767 0.000036
v 0.165614 0.316543 0.000036
v 0.216095 0.287773 0.000036
v 0.233821 0.253836 0.000036
v 0.084689 0.335767 0.030516
v 0.155683 0.316543 0.056355
v 0.203120 0.287773 0.073621
v 0.219777 0.253836 0.079684
v 0.069214 0.335767 0.057319
v 0.127089 0.316543 0.105882
v 0.165760 0.287773 0.138331
v 0.179339 0.253836 0.149725
v 0.045505 0.335767 0.077214
v 0.083280 0.316543 0.142642
v 0.108520 0.287773 0.186360
v 0.117384 0.253836 0.201712
v 0.016421 0.335767 0.087799
v 0.029540 0.316543 0.162202
v 0.038306 0.287773 0.211916
v 0.041384 0.253836 0.229373
v -0.014529 0.335767 0.087799
v -0.027648 0.316543 0.162202
v -0.036414 0.287773 0.211916
v -0.039493 0.253836 0.229373
v -0.043613 0.335767 0.077214
v -0.081388 0.316543 0.142642
v -0.106629 0.287773 0.186360
v -0.115492 0.253836 0.201712
v -0.067322 0.335767 0.057319
v -0.125197 0.316543 0.105882
v -0.163868 0.287773 0.138331
v -0.177447 0.253836 0.149725
v -0.082797 0.335767 0.030516
v -0.153791 0.316543 0.056355
v -0.201228 0.287773 0.073621
v -0.217885 0.253836 0.079684
v -0.088172 0.335767 0.000036
v -0.163722 0.316543 0.000036
v -0.214203 0.287773 0.000036
v -0.231930 0.253836 0.000036
vt 0.042891 0.658746
vt 0.145962 0.627667
vt 0.213603 0.740611
vt 0.127378 0.805045
vt 0.252132 0.592383
vt 0.301305 0.671135
vt 0.369183 0.550125
vt 0.396843 0.591391
vt 0.315786 0.823607
vt 0.256797 0.913621
vt 0.374469 0.728336
vt 0.436953 0.620684
vt 0.440192 0.866621
vt 0.415538 0.971390
vt 0.462756 0.757051
vt 0.484656 0.634516
vt 0.571819 0.864510
vt 0.584462 0.971389
vt 0.555535 0.753782
vt 0.534215 0.631181
vt 0.694784 0.817493
vt 0.743203 0.913621
vt 0.641623 0.719028
vt 0.579661 0.611103
vt 0.794256 0.731265
vt 0.872622 0.805045
vt 0.710607 0.656921
vt 0.615454 0.576698
vt 0.858216 0.616242
vt 0.957109 0.658746
vt 0.754174 0.574987
vt 0.637344 0.532115
vt 0.878969 0.486285
vt 0.986464 0.492360
vt 0.767122 0.483064
vt 0.642678 0.482733
vt 0.854044 0.356998
vt 0.957109 0.325974
vt 0.747848 0.392259
vt 0.630816 0.434507
vt 0.786418 0.244082
vt 0.872622 0.179676
vt 0.698667 0.313497
vt 0.603157 0.393253
vt 0.684184 0.161067
vt 0.743203 0.071099
vt 0.625499 0.256343
vt 0.563043 0.363976
vt 0.559812 0.118093
vt 0.584462 0.013331
vt 0.537248 0.227673
vt 0.515329 0.350166
vt 0.428217 0.120210
vt 0.415538 0.013331
vt 0.444478 0.230896
vt 0.465764 0.353482
vt 0.305248 0.167151
vt 0.256797 0.071099
vt 0.358382 0.265611
vt 0.420328 0.373545
vt 0.205801 0.253352
vt 0.127378 0.179675
vt 0.289401 0.327702
vt 0.384517 0.407941
vt 0.141776 0.368428
vt 0.042891 0.325974
vt 0.245788 0.409658
vt 0.362621 0.452504
vt 0.120996 0.498415
vt 0.013536 0.492360
vt 0.232852 0.501569
vt 0.357295 0.501897
vt 0.499987 0.492280
vn -0.832900 0.463000 -0.303100
vn -0.690100 0.678800 -0.251100
vn -0.562500 0.678800 -0.472000
vn -0.679000 0.463000 -0.569700
vn -0.363600 0.922100 -0.132300
vn -0.296400 0.922100 -0.248700
vn -0.160700 0.985300 -0.058500
vn -0.131000 0.985300 -0.109900
vn -0.367200 0.678800 -0.635900
vn -0.443200 0.463000 -0.767600
vn -0.193400 0.922100 -0.335100
vn -0.085500 0.985300 -0.148100
vn -0.127500 0.678800 -0.723200
vn -0.153900 0.463000 -0.872900
vn -0.067200 0.922100 -0.381000
vn -0.029700 0.985300 -0.168400
vn 0.127500 0.678800 -0.723200
vn 0.153900 0.463000 -0.872900
vn 0.067200 0.922100 -0.381000
vn 0.029700 0.985300 -0.168400
vn 0.367200 0.678800 -0.635900
vn 0.443200 0.463000 -0.767600
vn 0.193400 0.922100 -0.335100
vn 0.085500 0.985300 -0.148100
vn 0.562500 0.678800 -0.472000
vn 0.679000 0.463000 -0.569700
vn 0.296400 0.922100 -0.248700
vn 0.131000 0.985300 -0.109900
vn 0.690100 0.678800 -0.251100
vn 0.832900 0.463000 -0.303100
vn 0.363600 0.922100 -0.132300
vn 0.160700 0.985300 -0.058500
vn 0.734300 0.678800 0.000000
vn 0.886300 0.463000 0.000000
vn 0.386900 0.922100 0.000000
vn 0.171000 0.985300 0.000000
vn 0.690100 0.678800 0.251100
vn 0.832900 0.463000 0.303100
vn 0.363600 0.922100 0.132300
vn 0.160700 0.985300 0.058500
vn 0.562500 0.678800 0.472000
vn 0.679000 0.463000 0.569700
vn 0.296400 0.922100 0.248700
vn 0.131000 0.985300 0.109900
vn 0.367200 0.678800 0.635900
vn 0.443200 0.463000 0.767600
vn 0.193400 0.922100 0.335100
vn 0.085500 0.985300 0.148100
vn 0.127500 0.678800 0.723200
vn 0.153900 0.463000 0.872900
vn 0.067200 0.922100 0.381000
vn 0.029700 0.985300 0.168400
vn -0.127500 0.678800 0.723200
vn -0.153900 0.463000 0.872900
vn -0.067200 0.922100 0.381000
vn -0.029700 0.985300 0.168400
vn -0.367200 0.678800 0.635900
vn -0.443200 0.463000 0.767600
vn -0.193400 0.922100 0.335100
vn -0.085500 0.985300 0.148100
vn -0.562500 0.678800 0.472000
vn -0.679000 0.463000 0.569700
vn -0.296400 0.922100 0.248700
vn -0.131000 0.985300 0.109900
vn -0.690100 0.678800 0.251100
vn -0.832900 0.463000 0.303100
vn -0.363600 0.922100 0.132300
vn -0.160700 0.985300 0.058500
vn -0.734300 0.678800 0.000000
vn -0.886300 0.463000 0.000000
vn -0.386900 0.922100 0.000000
vn -0.171000 0.985300 0.000000
vn 0.000000 1.000000 0.000000
usemtl None
s 1
f 4/1/1 3/2/2 7/3/3 8/4/4
f 3/2/2 2/5/5 6/6/6 7/3/3
f 2/5/5 1/7/7 5/8/8 6/6/6
f 8/4/4 7/3/3 11/9/9 12/10/10
f 7/3/3 6/6/6 10/11/11 11/9/9
f 6/6/6 5/8/8 9/12/12 10/11/11
f 12/10/10 11/9/9 15/13/13 16/14/14
f 11/9/9 10/11/11 14/15/15 15/13/13
f 10/11/11 9/12/12 13/16/16 14/15/15
f 16/14/14 15/13/13 19/17/17 20/18/18
f 15/13/13 14/15/15 18/19/19 19/17/17
f 14/15/15 13/16/16 17/20/20 18/19/19
f 20/18/18 19/17/17 23/21/21 24/22/22
f 19/17/17 18/19/19 22/23/23 23/21/21
f 18/19/19 17/20/20 21/24/24 22/23/23
f 24/22/22 23/21/21 28/25/25 29/26/26
f 23/21/21 22/23/23 27/27/27 28/25/25
f 22/23/23 21/24/24 26/28/28 27/27/27
f 29/26/26 28/25/25 32/29/29 33/30/30
f 28/25/25 27/27/27 31/31/31 32/29/29
f 27/27/27 26/28/28 30/32/32 31/31/31
f 33/30/30 32/29/29 36/33/33 37/34/34
f 32/29/29 31/31/31 35/35/35 36/33/33
f 31/31/31 30/32/32 34/36/36 35/35/35
f 37/34/34 36/33/33 40/37/37 41/38/38
f 36/33/33 35/35/35 39/39/39 40/37/37
f 35/35/35 34/36/36 38/40/40 39/39/39
f 41/38/38 40/37/37 44/41/41 45/42/42
f 40/37/37 39/39/39 43/43/43 44/41/41
f 39/39/39 38/40/40 42/44/44 43/43/43
f 45/42/42 44/41/41 48/45/45 49/46/46
f 44/41/41 43/43/43 47/47/47 48/45/45
f 43/43/43 42/44/44 46/48/48 47/47/47
f 49/46/46 48/45/45 52/49/49 53/50/50
f 48/45/45 47/47/47 51/51/51 52/49/49
f 47/47/47 46/48/48 50/52/52 51/51/51
f 53/50/50 52/49/49 56/53/53 57/54/54
f 52/49/49 51/51/51 55/55/55 56/53/53
f 51/51/51 50/52/52 54/56/56 55/55/55
f 57/54/54 56/53/53 60/57/57 61/58/58
f 56/53/53 55/55/55 59/59/59 60/57/57
f 55/55/55 54/56/56 58/60/60 59/59/59
f 61/58/58 60/57/57 64/61/61 65/62/62
f 60/57/57 59/59/59 63/63/63 64/61/61
f 59/59/59 58/60/60 62/64/64 63/63/63
f 65/62/62 64/61/61 68/65/65 69/66/66
f 64/61/61 63/63/63 67/67/67 68/65/65
f 63/63/63 62/64/64 66/68/68 67/67/67
f 69/66/66 68/65/65 72/69/69 73/70/70
f 68/65/65 67/67/67 71/71/71 72/69/69
f 67/67/67 66/68/68 70/72/72 71/71/71
f 73/70/70 72/69/69 3/2/2 4/1/1
f 72/69/69 71/71/71 2/5/5 3/2/2
f 71/71/71 70/72/72 1/7/7 2/5/5
f 70/72/72 25/73/73 1/7/7
f 1/7/7 25/73/73 5/8/8
f 5/8/8 25/73/73 9/12/12
f 9/12/12 25/73/73 13/16/16
f 13/16/16 25/73/73 17/20/20
f 17/20/20 25/73/73 21/24/24
f 21/24/24 25/73/73 26/28/28
f 26/28/28 25/73/73 30/32/32
f 30/32/32 25/73/73 34/36/36
f 34/36/36 25/73/73 38/40/40
f 38/40/40 25/73/73 42/44/44
f 42/44/44 25/73/73 46/48/48
f 46/48/48 25/73/73 50/52/52
f 50/52/52 25/73/73 54/56/56
f 54/56/56 25/73/73 58/60/60
f 58/60/60 25/73/73 62/64/64
f 62/64/64 25/73/73 66/68/68
f 66/68/68 25/73/73 70/72/72
