# Blender v2.74 (sub 0) OBJ File: 'pOTS.blend'
# www.blender.org
mtllib Pot_D.mtl
o ZBrushPolyMesh3D.002
v -0.127375 0.401446 -0.105973
v -0.155402 0.415584 -0.056387
v -0.111692 0.576920 -0.090155
v -0.141347 0.120463 0.050188
v -0.115189 0.128623 0.097053
v -0.130544 0.318825 0.108260
v 0.085961 0.277552 0.144658
v 0.030310 0.280279 0.165167
v 0.028076 0.128799 0.148746
v 0.107315 0.000488 -0.012525
v -0.091079 -0.000636 -0.055989
v 0.071094 0.000160 -0.080367
v 0.150241 0.116874 -0.003471
v 0.131945 0.088242 -0.054377
v 0.157710 0.281731 -0.061137
v 0.108642 0.575413 -0.095623
v 0.155218 0.401919 -0.059950
v 0.126989 0.347293 -0.112358
v 0.078073 0.688536 0.060442
v 0.013551 0.732710 0.020607
v 0.037948 0.690772 0.091008
v -0.167641 0.272985 0.000146
v -0.157859 0.338164 0.063218
v -0.164620 0.412590 -0.000151
v -0.073359 0.575540 -0.125155
v -0.017779 0.734602 0.013946
v -0.098327 0.688480 0.002373
v -0.083112 0.690336 0.052000
v 0.032976 0.340647 -0.167277
v -0.030575 0.400554 -0.163290
v -0.001825 0.579793 -0.144359
v -0.075866 0.131774 -0.131709
v -0.112626 0.101845 -0.092975
v -0.127698 0.280318 -0.109194
v -0.025968 0.106125 0.145114
v -0.026490 0.330908 0.167168
v -0.083140 0.270040 0.145489
v -0.109352 0.578644 0.092834
v -0.135451 0.577729 0.047021
v 0.165816 0.403991 -0.002923
v 0.141973 0.583737 -0.004055
v 0.137434 0.575820 0.046604
v 0.168243 0.289929 -0.001835
v 0.160674 0.337274 0.054501
v 0.144305 0.125036 0.048046
v 0.136474 0.327750 0.102765
v 0.115721 0.102179 0.089624
v 0.074031 -0.000450 0.076390
v -0.044511 -0.000578 0.096717
v 0.085355 0.405020 0.141920
v 0.110664 0.580420 0.091325
v 0.071720 0.585751 0.122372
v 0.098628 0.689355 0.015163
v 0.092927 0.690023 -0.034712
v 0.026218 0.731994 0.000074
v -0.049117 0.689700 -0.085610
v -0.087492 0.690502 -0.045735
v -0.018799 0.734073 -0.014251
v 0.069699 0.576907 -0.127659
v 0.061901 0.687992 -0.079694
v 0.002848 0.689830 -0.099733
v 0.020014 0.726520 -0.026542
v -0.158039 0.280735 -0.057981
v -0.090708 0.667404 0.034301
v -0.096742 0.666401 -0.018463
v -0.141779 0.581188 0.001944
v -0.064128 0.666990 -0.075218
v -0.133410 0.583520 -0.047204
v 0.092907 0.668395 0.029764
v 0.076561 0.667757 0.060432
v 0.038192 0.665888 0.091406
v -0.080532 0.404637 0.144159
v -0.020963 0.578855 0.142790
v -0.031136 0.279756 -0.165846
v 0.023863 0.120280 -0.148834
v -0.024972 0.102097 -0.143740
v 0.027327 0.591115 0.136852
v -0.015001 0.666534 0.096199
v -0.015474 0.691038 0.096228
v 0.067117 0.094281 -0.127759
v 0.115127 0.107972 -0.094588
v -0.065188 0.052794 -0.111373
v -0.005080 0.003751 -0.110903
v 0.031296 0.428656 0.161140
v -0.017218 0.666940 -0.096408
v 0.034731 0.665642 -0.092726
v 0.018037 0.002166 0.106854
v 0.075416 0.094195 0.122579
v 0.096335 0.666891 -0.021749
v 0.074299 0.668044 -0.063621
v -0.066502 0.582729 0.125552
v -0.060557 0.665176 0.077928
v -0.135341 0.099940 -0.054491
v -0.142516 0.089910 -0.006836
v -0.102892 0.000837 0.033436
v 0.000173 0.733134 -0.024385
v 0.108373 0.012964 0.031905
v -0.048331 0.689897 0.084873
v -0.099055 0.052153 0.081191
v 0.086726 0.315820 -0.147759
v 0.135249 0.578781 -0.050537
v -0.074626 0.104372 0.125151
v -0.085821 0.331535 -0.146277
v 0.015119 0.752482 -0.001804
v -0.006035 0.751790 -0.015490
v -0.012937 0.751354 0.010585
vt 0.838713 0.479997
vt 0.842705 0.449338
vt 0.932319 0.457240
vt 0.698874 0.388821
vt 0.705777 0.363376
vt 0.793263 0.369711
vt 0.777881 0.267818
vt 0.778340 0.292501
vt 0.711400 0.289183
vt 0.927172 0.562583
vt 0.980614 0.509156
vt 0.955697 0.564854
vt 0.709347 0.192736
vt 0.694848 0.167501
vt 0.782795 0.170229
vt 0.911948 0.155675
vt 0.833247 0.172667
vt 0.811723 0.145779
vt 0.471980 0.563738
vt 0.511931 0.560460
vt 0.484396 0.586015
vt 0.771100 0.422526
vt 0.802154 0.393818
vt 0.838349 0.420807
vt 0.850969 0.014418
vt 0.943225 0.036694
vt 0.932807 0.062388
vt 0.525029 0.563488
vt 0.563102 0.579960
vt 0.544555 0.597049
vt 0.812059 0.096796
vt 0.842704 0.071443
vt 0.924571 0.098707
vt 0.709659 0.042839
vt 0.688258 0.016242
vt 0.787131 0.008594
vt 0.698881 0.313910
vt 0.799145 0.317089
vt 0.772379 0.342382
vt 0.910953 0.361012
vt 0.913852 0.385593
vt 0.832755 0.197036
vt 0.911505 0.201450
vt 0.905932 0.224183
vt 0.785464 0.195418
vt 0.804145 0.219343
vt 0.712919 0.216599
vt 0.799459 0.241588
vt 0.701189 0.239091
vt 0.905999 0.534306
vt 0.923428 0.493089
vt 0.830610 0.268574
vt 0.907323 0.247546
vt 0.909727 0.270109
vt 0.474933 0.538403
vt 0.489207 0.517936
vt 0.511534 0.549490
vt 0.563017 0.530735
vt 0.568288 0.557487
vt 0.531642 0.553819
vt 0.916155 0.132364
vt 0.513867 0.505882
vt 0.543747 0.512137
vt 0.519114 0.539879
vt 0.773836 0.452185
vt 0.771989 0.484340
vt 0.673488 0.465383
vt 0.966776 0.373519
vt 0.973217 0.404455
vt 0.920081 0.406938
vt 0.989370 0.439459
vt 0.927554 0.431298
vt 0.962096 0.226524
vt 0.960129 0.247379
vt 0.958206 0.278007
vt 0.830689 0.341244
vt 0.907047 0.313818
vt 0.641747 0.139083
vt 0.643427 0.188038
vt 0.785223 0.066458
vt 0.708513 0.095075
vt 0.697059 0.071136
vt 0.912572 0.291408
vt 0.960245 0.311787
vt 0.506395 0.601143
vt 0.696474 0.118916
vt 0.704610 0.146711
vt 0.665758 0.049980
vt 0.640574 0.087871
vt 0.623799 0.028645
vt 0.840400 0.292491
vt 0.989370 0.074834
vt 0.979172 0.103842
vt 0.971012 0.134709
vt 0.639851 0.285819
vt 0.640993 0.244816
vt 0.696023 0.263245
vt 0.963004 0.193775
vt 0.967656 0.164861
vt 0.910525 0.335966
vt 0.960940 0.342019
vt 0.678826 0.440874
vt 0.678405 0.414867
vt 0.954974 0.487494
vt 0.526471 0.545487
vt 0.654221 0.213044
vt 0.460427 0.543538
vt 0.473920 0.513432
vt 0.472399 0.596410
vt 0.460314 0.566688
vt 0.616868 0.433279
vt 0.560839 0.507203
vt 0.579774 0.534905
vt 0.522746 0.602764
vt 0.629929 0.379739
vt 0.635273 0.325428
vt 0.665596 0.359682
vt 0.799360 0.121647
vt 0.560887 0.601762
vt 0.531227 0.617169
vt 0.579774 0.574905
vt 0.501846 0.613732
vt 0.910899 0.179874
vt 0.696068 0.339031
vt 0.812127 0.037787
vt 0.500307 0.497199
vt 0.907636 0.510625
vt 0.530654 0.493627
vt 0.980614 0.547155
vt 0.518764 0.552409
vt 0.524292 0.552482
vt 0.522810 0.557797
vn -0.756000 0.073500 -0.650400
vn -0.938100 0.081200 -0.336600
vn -0.751000 0.288800 -0.593800
vn -0.924800 -0.202900 0.321700
vn -0.751100 -0.180200 0.635100
vn -0.761400 -0.009000 0.648200
vn 0.519600 -0.059800 0.852300
vn 0.164100 -0.053500 0.985000
vn 0.187800 -0.188700 0.963900
vn 0.609900 -0.787000 -0.093000
vn -0.521400 -0.791500 -0.318700
vn 0.402500 -0.788700 -0.464600
vn 0.975800 -0.215200 -0.037800
vn 0.890300 -0.290000 -0.351100
vn 0.925400 -0.056400 -0.374600
vn 0.724500 0.278100 -0.630600
vn 0.927000 0.078800 -0.366700
vn 0.753400 0.029700 -0.656800
vn 0.703500 0.446200 0.553100
vn 0.279100 0.807800 0.519200
vn 0.327900 0.481800 0.812600
vn -0.997800 -0.063300 0.016600
vn -0.932900 0.019900 0.359700
vn -0.996200 0.084100 0.020100
vn -0.467100 0.281100 -0.838300
vn -0.507600 0.755200 0.414700
vn -0.898400 0.436700 0.046200
vn -0.759600 0.454800 0.464900
vn 0.180500 0.021900 -0.983300
vn -0.190500 0.085200 -0.978000
vn -0.015000 0.295300 -0.955300
vn -0.492800 -0.173000 -0.852700
vn -0.738500 -0.240200 -0.630000
vn -0.755400 -0.056600 -0.652800
vn -0.165400 -0.242000 0.956100
vn -0.160600 0.006200 0.987000
vn -0.486000 -0.070500 0.871100
vn -0.732800 0.284900 0.617800
vn -0.904000 0.284900 0.318700
vn 0.996800 0.080000 -0.003100
vn 0.950900 0.308800 -0.016900
vn 0.910300 0.274200 0.310000
vn 0.999000 -0.045000 0.000200
vn 0.950900 0.015600 0.308900
vn 0.927300 -0.194600 0.319700
vn 0.791300 -0.000300 0.611500
vn 0.762400 -0.243700 0.599400
vn 0.421500 -0.795700 0.434900
vn -0.266900 -0.790600 0.551000
vn 0.528300 0.075800 0.845600
vn 0.739500 0.290600 0.607200
vn 0.484300 0.303800 0.820400
vn 0.893000 0.426600 0.143400
vn 0.820800 0.464400 -0.332400
vn 0.665800 0.744800 0.044200
vn -0.433300 0.454100 -0.778500
vn -0.795800 0.437500 -0.418700
vn -0.574400 0.749500 -0.329200
vn 0.438700 0.283200 -0.852800
vn 0.557000 0.409200 -0.722600
vn 0.034100 0.444500 -0.895100
vn 0.354700 0.820400 -0.448500
vn -0.937900 -0.047200 -0.343600
vn -0.910200 0.240200 0.337200
vn -0.947700 0.253900 -0.193200
vn -0.954600 0.297800 0.008000
vn -0.648100 0.261300 -0.715300
vn -0.895700 0.312400 -0.316500
vn 0.928700 0.219900 0.298500
vn 0.749500 0.224200 0.622900
vn 0.357400 0.282400 0.890200
vn -0.493400 0.087100 0.865400
vn -0.141900 0.283100 0.948500
vn -0.179900 -0.063200 -0.981600
vn 0.161600 -0.196100 -0.967200
vn -0.178000 -0.246700 -0.952600
vn 0.178600 0.332400 0.926100
vn -0.144500 0.263300 0.953800
vn -0.123000 0.476300 0.870600
vn 0.442900 -0.271600 -0.854400
vn 0.745200 -0.218500 -0.630000
vn -0.471700 -0.388900 -0.791300
vn -0.034200 -0.749100 -0.661500
vn 0.170800 0.092700 0.980900
vn -0.186000 0.238700 -0.953100
vn 0.325900 0.266200 -0.907100
vn 0.111100 -0.741000 0.662200
vn 0.488900 -0.265400 0.831000
vn 0.947500 0.247300 -0.202300
vn 0.754100 0.216700 -0.619900
vn -0.457300 0.304200 0.835600
vn -0.594600 0.276800 0.754900
vn -0.906100 -0.240600 -0.347900
vn -0.958300 -0.283800 -0.032700
vn -0.608500 -0.772200 0.182800
vn 0.010700 0.742900 -0.669300
vn 0.797400 -0.543200 0.262900
vn -0.425300 0.454500 0.782600
vn -0.714900 -0.367500 0.594800
vn 0.511700 -0.027200 -0.858700
vn 0.894700 0.288300 -0.341300
vn -0.503100 -0.243300 0.829200
vn -0.509200 0.009800 -0.860600
vn 0.529700 0.848100 -0.001400
vn -0.220100 0.780200 -0.585500
vn -0.482000 0.742000 0.465900
usemtl None
s 1
f 1/1/1 2/2/2 3/3/3
f 4/4/4 5/5/5 6/6/6
f 7/7/7 8/8/8 9/9/9
f 10/10/10 11/11/11 12/12/12
f 13/13/13 14/14/14 15/15/15
f 16/16/16 17/17/17 18/18/18
f 19/19/19 20/20/20 21/21/21
f 22/22/22 23/23/23 24/24/24
f 1/25/1 3/26/3 25/27/25
f 26/28/26 27/29/27 28/30/28
f 29/31/29 30/32/30 31/33/31
f 32/34/32 33/35/33 34/36/34
f 35/37/35 36/38/36 37/39/37
f 38/40/38 39/41/39 23/23/23
f 40/42/40 41/43/41 42/44/42
f 43/45/43 44/46/44 45/47/45
f 45/47/45 46/48/46 47/49/47
f 48/50/48 49/51/49 11/11/11
f 40/42/40 42/44/42 44/46/44
f 50/52/50 51/53/51 52/54/52
f 53/55/53 54/56/54 55/57/55
f 56/58/56 57/59/57 58/60/58
f 59/61/59 29/31/29 31/33/31
f 60/62/60 61/63/61 62/64/62
f 63/65/63 34/66/34 33/67/33
f 22/22/22 4/4/4 23/23/23
f 64/68/64 65/69/65 66/70/66
f 67/71/67 68/72/68 65/69/65
f 69/73/69 42/44/42 41/43/41
f 70/74/70 52/54/52 51/53/51
f 70/74/70 71/75/71 52/54/52
f 72/76/72 36/38/36 73/77/73
f 12/78/12 14/14/14 10/79/10
f 74/80/74 75/81/75 76/82/76
f 77/83/77 71/75/71 78/84/78
f 79/85/79 21/21/21 20/20/20
f 80/86/80 81/87/81 12/78/12
f 15/15/15 81/87/81 18/18/18
f 77/83/77 78/84/78 73/77/73
f 64/68/64 39/41/39 38/40/38
f 82/88/82 83/89/83 11/90/11
f 76/82/76 75/81/75 83/89/83
f 73/77/73 84/91/84 77/83/77
f 84/91/84 50/52/50 52/54/52
f 67/92/67 25/27/25 3/26/3
f 85/93/85 86/94/86 31/33/31
f 35/37/35 9/9/9 8/8/8
f 87/95/87 48/96/48 88/97/88
f 59/61/59 16/16/16 18/18/18
f 59/61/59 31/33/31 86/94/86
f 38/40/38 23/23/23 6/6/6
f 4/4/4 6/6/6 23/23/23
f 69/73/69 41/43/41 89/98/89
f 59/61/59 90/99/90 16/16/16
f 38/40/38 72/76/72 91/100/91
f 38/40/38 91/100/91 92/101/92
f 62/64/62 54/56/54 60/62/60
f 59/61/59 86/94/86 90/99/90
f 22/22/22 93/102/93 94/103/94
f 95/104/95 11/11/11 49/51/49
f 25/27/25 67/92/67 85/93/85
f 56/58/56 96/105/96 61/63/61
f 14/14/14 13/13/13 10/79/10
f 47/49/47 97/106/97 45/47/45
f 69/107/69 89/108/89 53/55/53
f 19/19/19 71/109/71 70/110/70
f 82/88/82 11/90/11 33/35/33
f 94/103/94 93/102/93 11/111/11
f 56/58/56 85/112/85 67/113/67
f 56/58/56 67/113/67 57/59/57
f 26/28/26 28/30/28 98/114/98
f 64/68/64 38/40/38 92/101/92
f 9/9/9 35/37/35 87/95/87
f 95/115/95 49/116/49 99/117/99
f 81/87/81 80/86/80 100/118/100
f 74/80/74 29/31/29 75/81/75
f 64/119/64 92/120/92 28/30/28
f 64/119/64 28/30/28 27/29/27
f 94/103/94 11/111/11 95/115/95
f 99/117/99 4/4/4 95/115/95
f 59/61/59 100/118/100 29/31/29
f 29/31/29 100/118/100 75/81/75
f 64/119/64 27/29/27 65/121/65
f 67/113/67 65/121/65 57/59/57
f 7/7/7 9/9/9 88/97/88
f 88/97/88 9/9/9 87/95/87
f 79/85/79 78/122/78 71/109/71
f 98/114/98 28/30/28 92/120/92
f 22/22/22 94/103/94 4/4/4
f 94/103/94 95/115/95 4/4/4
f 40/42/40 17/17/17 101/123/101
f 43/45/43 13/13/13 15/15/15
f 25/27/25 85/93/85 31/33/31
f 25/27/25 31/33/31 30/32/30
f 79/85/79 71/109/71 21/21/21
f 19/19/19 21/21/21 71/109/71
f 35/37/35 37/39/37 102/124/102
f 102/124/102 49/116/49 35/37/35
f 43/45/43 45/47/45 13/13/13
f 13/13/13 45/47/45 97/106/97
f 25/27/25 30/32/30 103/125/103
f 32/34/32 103/125/103 74/80/74
f 79/85/79 92/120/92 78/122/78
f 78/84/78 92/101/92 91/100/91
f 54/56/54 53/55/53 89/108/89
f 90/126/90 60/62/60 54/56/54
f 49/51/49 48/50/48 87/127/87
f 35/37/35 49/116/49 87/95/87
f 69/73/69 51/53/51 42/44/42
f 42/44/42 51/53/51 46/48/46
f 60/62/60 90/126/90 86/128/86
f 60/62/60 86/128/86 61/63/61
f 67/71/67 3/3/3 68/72/68
f 68/72/68 3/3/3 2/2/2
f 48/50/48 11/11/11 10/10/10
f 97/106/97 47/49/47 48/96/48
f 56/58/56 58/60/58 96/105/96
f 79/85/79 20/20/20 26/28/26
f 40/42/40 101/123/101 41/43/41
f 41/43/41 101/123/101 89/98/89
f 84/91/84 73/77/73 36/38/36
f 35/37/35 8/8/8 36/38/36
f 80/86/80 12/78/12 83/89/83
f 11/11/11 83/129/83 12/12/12
f 22/22/22 63/65/63 93/102/93
f 22/22/22 24/24/24 2/2/2
f 55/57/55 62/64/62 104/130/104
f 55/57/55 54/56/54 62/64/62
f 13/13/13 97/106/97 10/79/10
f 48/96/48 10/79/10 97/106/97
f 22/22/22 2/2/2 63/65/63
f 2/2/2 34/66/34 63/65/63
f 36/38/36 8/8/8 84/91/84
f 8/8/8 50/52/50 84/91/84
f 55/57/55 20/20/20 53/55/53
f 55/57/55 104/130/104 20/20/20
f 24/24/24 68/72/68 2/2/2
f 68/72/68 66/70/66 65/69/65
f 82/88/82 76/82/76 83/89/83
f 32/34/32 74/80/74 76/82/76
f 16/16/16 101/123/101 17/17/17
f 90/99/90 101/123/101 16/16/16
f 96/105/96 105/131/105 104/130/104
f 106/132/106 20/20/20 104/130/104
f 66/70/66 68/72/68 24/24/24
f 23/23/23 39/41/39 24/24/24
f 77/83/77 52/54/52 71/75/71
f 84/91/84 52/54/52 77/83/77
f 33/35/33 32/34/32 82/88/82
f 76/82/76 82/88/82 32/34/32
f 59/61/59 18/18/18 100/118/100
f 100/118/100 18/18/18 81/87/81
f 32/34/32 34/36/34 103/125/103
f 1/25/1 25/27/25 103/125/103
f 47/49/47 46/48/46 7/7/7
f 50/52/50 46/48/46 51/53/51
f 104/130/104 105/131/105 106/132/106
f 57/59/57 26/28/26 58/60/58
f 37/39/37 6/6/6 5/5/5
f 38/40/38 6/6/6 72/76/72
f 80/86/80 75/81/75 100/118/100
f 80/86/80 83/89/83 75/81/75
f 56/58/56 61/63/61 85/112/85
f 86/128/86 85/112/85 61/63/61
f 63/65/63 33/67/33 93/102/93
f 11/111/11 93/102/93 33/67/33
f 26/28/26 20/20/20 106/132/106
f 106/132/106 58/60/58 26/28/26
f 90/126/90 54/56/54 89/108/89
f 90/99/90 89/98/89 101/123/101
f 12/78/12 81/87/81 14/14/14
f 81/87/81 15/15/15 14/14/14
f 27/29/27 26/28/26 57/59/57
f 27/29/27 57/59/57 65/121/65
f 46/48/46 50/52/50 7/7/7
f 8/8/8 7/7/7 50/52/50
f 36/38/36 72/76/72 37/39/37
f 37/39/37 72/76/72 6/6/6
f 53/55/53 20/20/20 19/19/19
f 69/107/69 53/55/53 19/19/19
f 46/48/46 45/47/45 44/46/44
f 42/44/42 46/48/46 44/46/44
f 72/76/72 73/77/73 91/100/91
f 78/84/78 91/100/91 73/77/73
f 105/131/105 96/105/96 58/60/58
f 58/60/58 106/132/106 105/131/105
f 2/2/2 1/1/1 34/66/34
f 103/125/103 34/36/34 1/25/1
f 47/49/47 7/7/7 88/97/88
f 47/49/47 88/97/88 48/96/48
f 69/73/69 70/74/70 51/53/51
f 69/107/69 19/19/19 70/110/70
f 18/18/18 17/17/17 15/15/15
f 17/17/17 43/45/43 15/15/15
f 37/39/37 5/5/5 102/124/102
f 102/124/102 99/117/99 49/116/49
f 62/64/62 96/105/96 104/130/104
f 96/105/96 62/64/62 61/63/61
f 30/32/30 29/31/29 74/80/74
f 30/32/30 74/80/74 103/125/103
f 66/70/66 24/24/24 39/41/39
f 64/68/64 66/70/66 39/41/39
f 79/85/79 98/114/98 92/120/92
f 79/85/79 26/28/26 98/114/98
f 17/17/17 40/42/40 43/45/43
f 44/46/44 43/45/43 40/42/40
f 5/5/5 4/4/4 99/117/99
f 5/5/5 99/117/99 102/124/102
