# Blender v2.74 (sub 0) OBJ File: 'pOTS.blend'
# www.blender.org
mtllib Pot_B.mtl
o ZBrushPolyMesh3D.008
v 0.153847 0.208539 -0.094974
v 0.103737 0.203974 -0.145455
v 0.174058 0.344810 -0.104018
v 0.030961 0.397054 0.186990
v 0.094959 0.414370 0.153139
v 0.022378 0.466217 0.137395
v 0.040895 0.206084 -0.174090
v -0.030177 0.159542 -0.165235
v -0.030314 0.353957 -0.199875
v 0.071059 0.495503 -0.042189
v 0.136385 0.466937 -0.021989
v 0.121328 0.464443 -0.074421
v -0.151593 0.210025 0.095332
v -0.198422 0.352178 0.033631
v -0.174918 0.203675 0.029865
v 0.095378 0.212253 0.153311
v 0.029486 0.205221 0.176548
v 0.019768 0.032159 0.129242
v 0.031242 0.466594 -0.134943
v 0.047778 0.400826 -0.182503
v -0.026326 0.412889 -0.178905
v -0.161205 0.395484 0.100084
v -0.175691 0.416688 0.028159
v -0.098784 0.155940 0.135134
v -0.079169 0.025722 0.097658
v -0.034628 0.027487 0.122991
v 0.026425 0.034559 -0.128821
v 0.057472 0.000268 0.082251
v -0.012013 0.001928 -0.101350
v 0.050424 0.002246 0.006629
v 0.106989 0.029726 0.074262
v 0.126864 0.029490 0.026354
v 0.172255 0.195401 0.039098
v 0.010169 -0.000165 0.098117
v -0.050776 0.000656 0.072953
v -0.042066 0.002334 -0.027424
v -0.147198 0.220328 -0.105775
v -0.107643 0.033633 -0.073374
v -0.173507 0.204908 -0.038909
v 0.118824 0.460061 0.084789
v 0.153296 0.398553 0.110722
v 0.179695 0.407643 0.043200
v 0.191805 0.307890 -0.030054
v 0.181305 0.244196 0.042712
v 0.178603 0.209210 -0.029149
v -0.039858 0.207351 0.174417
v -0.115763 0.351454 0.165390
v -0.040785 0.402341 0.183497
v -0.104062 0.415276 0.145716
v -0.097188 0.396683 -0.162043
v -0.143438 0.417764 -0.103935
v -0.072325 0.465013 -0.119879
v -0.104057 0.345195 -0.172473
v -0.093046 0.200338 -0.150606
v -0.080256 0.495241 0.012282
v -0.074202 0.543624 0.027353
v -0.075883 0.543897 -0.019275
v 0.076603 0.496734 0.036884
v 0.081660 0.495404 -0.012050
v 0.044414 0.280377 0.031491
v 0.062424 0.543062 0.025482
v 0.066095 0.544542 -0.021610
v -0.030899 0.467301 0.132343
v -0.022718 0.292230 0.049392
v -0.031617 0.544151 0.059325
v 0.021654 0.544427 0.065527
v -0.045043 0.270968 0.003793
v -0.062048 0.452300 -0.017056
v -0.063354 0.544130 0.024026
v 0.081750 0.466494 -0.113312
v 0.034021 0.494993 -0.076484
v -0.000694 0.446883 -0.065447
v 0.005453 0.343042 -0.056972
v 0.039761 0.449753 -0.051710
v -0.118501 0.465992 0.071782
v -0.061369 0.495294 0.055565
v -0.018934 0.495204 0.079678
v -0.033978 0.312942 -0.043065
v -0.031309 0.447145 -0.056210
v -0.057219 0.543390 -0.034173
v -0.026963 0.495810 -0.078609
v -0.074704 0.495209 -0.034899
v -0.052112 0.543812 -0.059546
v 0.028195 0.495029 0.078580
v 0.140612 0.461138 0.034221
v 0.073597 0.467179 0.115678
v 0.052046 0.446251 0.039395
v -0.046315 0.543821 0.063552
v -0.003088 0.543668 0.079976
v 0.113716 0.399650 -0.150816
v 0.162446 0.397859 -0.098247
v 0.041433 0.543857 0.067870
v -0.109125 0.468627 -0.078348
v -0.010658 0.543963 -0.078255
v 0.068461 0.029717 0.109536
v 0.180553 0.411601 -0.027266
v 0.197729 0.347434 0.048390
v 0.202273 0.349782 -0.029829
v -0.196605 0.356716 -0.043664
v -0.173789 0.414753 -0.041520
v -0.164341 0.357334 -0.116766
v 0.146226 0.204919 0.103725
v -0.133018 0.466999 -0.030130
v -0.133530 0.467172 0.021357
v 0.163837 0.343774 0.118367
v -0.018230 0.542467 -0.061915
v 0.073012 0.543591 0.034001
v 0.078977 0.543991 -0.011388
v -0.020974 0.467056 -0.135807
v 0.033057 0.344552 0.199502
v 0.108733 0.353676 0.171502
v 0.020125 0.543990 -0.076532
v 0.060646 0.543961 -0.052920
v 0.137632 0.149318 -0.088178
v 0.073580 0.033350 -0.108692
v 0.072517 -0.000900 -0.073254
v 0.153223 0.118163 -0.026888
v 0.108667 0.031953 -0.071982
v 0.125334 0.028232 -0.025581
v 0.038923 0.284543 -0.035078
v 0.026321 0.542726 -0.060322
v -0.045376 0.344681 0.196745
v -0.027484 0.030746 -0.125349
v -0.128632 0.032499 0.019936
v -0.111508 0.029896 0.063593
v -0.095655 0.002822 -0.036026
v -0.093856 0.000894 0.026032
v 0.121146 0.345093 -0.162284
v -0.169827 0.342929 0.108439
v 0.048261 0.342849 -0.196652
v -0.076053 0.467732 0.112075
v -0.071285 0.034597 -0.109179
v 0.098746 0.000130 0.018691
v -0.059354 0.002369 -0.083014
v -0.126222 0.032521 -0.027186
vt 0.131595 0.778927
vt 0.161765 0.772899
vt 0.142014 0.836268
vt 0.430476 0.843458
vt 0.461456 0.865626
vt 0.414167 0.882802
vt 0.190355 0.769934
vt 0.216653 0.748030
vt 0.223963 0.819021
vt 0.188197 0.923187
vt 0.145105 0.906943
vt 0.167099 0.889546
vt 0.348362 0.760439
vt 0.322294 0.810557
vt 0.321545 0.759203
vt 0.476102 0.754113
vt 0.437914 0.754244
vt 0.417007 0.664899
vt 0.212889 0.870923
vt 0.202008 0.840698
vt 0.227660 0.839487
vt 0.346124 0.826705
vt 0.320971 0.833318
vt 0.373754 0.736423
vt 0.362701 0.672198
vt 0.388801 0.669026
vt 0.186951 0.687883
vt 0.556853 0.913479
vt 0.503580 0.963449
vt 0.531833 0.926635
vt 0.044679 0.667395
vt 0.076553 0.677377
vt 0.060032 0.776627
vt 0.569030 0.927491
vt 0.569030 0.952025
vt 0.533271 0.963289
vt 0.269786 0.767857
vt 0.266755 0.681961
vt 0.295881 0.760488
vt 0.091295 0.955463
vt 0.047287 0.916290
vt 0.091232 0.893992
vt 0.105406 0.830766
vt 0.060928 0.805695
vt 0.098286 0.782791
vt 0.405529 0.757108
vt 0.375062 0.813572
vt 0.399966 0.838120
vt 0.370664 0.837977
vt 0.250222 0.829468
vt 0.274754 0.834788
vt 0.254821 0.859207
vt 0.248311 0.812701
vt 0.242964 0.762359
vt 0.316005 0.889963
vt 0.320509 0.918617
vt 0.296992 0.914622
vt 0.149551 0.966903
vt 0.171311 0.937264
vt 0.378495 0.520876
vt 0.435339 0.594019
vt 0.422842 0.604980
vt 0.388230 0.872676
vt 0.322422 0.552287
vt 0.326647 0.635926
vt 0.305554 0.636012
vt 0.337345 0.538306
vt 0.354018 0.600176
vt 0.345200 0.634519
vt 0.190774 0.879207
vt 0.215919 0.904680
vt 0.378724 0.589627
vt 0.368496 0.561494
vt 0.391353 0.584209
vt 0.341434 0.859891
vt 0.344266 0.894620
vt 0.373792 0.905791
vt 0.355436 0.557514
vt 0.369239 0.593311
vt 0.367264 0.629796
vt 0.250673 0.894370
vt 0.288025 0.887776
vt 0.272154 0.916285
vt 0.402332 0.922407
vt 0.117084 0.925124
vt 0.432007 0.960496
vt 0.440647 0.900594
vt 0.294441 0.599450
vt 0.300088 0.540203
vt 0.344234 0.925098
vt 0.367687 0.935518
vt 0.176693 0.847896
vt 0.150171 0.856995
vt 0.387402 0.954172
vt 0.277172 0.859166
vt 0.375658 0.950214
vt 0.347639 0.933515
vt 0.249637 0.922842
vt 0.405844 0.640081
vt 0.363371 0.646016
vt 0.444294 0.653880
vt 0.124291 0.877333
vt 0.074714 0.862577
vt 0.111321 0.850192
vt 0.298000 0.812323
vt 0.297485 0.832295
vt 0.273624 0.814218
vt 0.015257 0.782164
vt 0.298401 0.857422
vt 0.319331 0.858165
vt 0.474052 0.921019
vt 0.509187 0.875687
vt 0.027226 0.879098
vt 0.285354 0.921030
vt 0.258261 0.928399
vt 0.401338 0.980279
vt 0.194222 0.959287
vt 0.180484 0.984938
vt 0.234020 0.864559
vt 0.435861 0.819477
vt 0.473831 0.832053
vt 0.522289 0.836082
vt 0.235361 0.928068
vt 0.212789 0.940409
vt 0.131145 0.749814
vt 0.160609 0.688732
vt 0.148792 0.660677
vt 0.206996 0.660051
vt 0.099492 0.733704
vt 0.133899 0.687540
vt 0.106858 0.682332
vt 0.501204 0.930355
vt 0.370569 0.545034
vt 0.233089 0.938078
vt 0.204151 0.956832
vt 0.039603 0.627121
vt 0.436300 0.629123
vt 0.403768 0.814660
vt 0.215400 0.683569
vt 0.316090 0.679396
vt 0.338997 0.677495
vt 0.282230 0.656141
vt 0.322970 0.652331
vt 0.171151 0.827844
vt 0.348167 0.808647
vt 0.198296 0.820556
vt 0.366007 0.866471
vt 0.240545 0.684367
vt 0.472917 0.639389
vt 0.516411 0.742290
vt 0.085936 0.651865
vt 0.241608 0.657535
vt 0.292152 0.680796
vt 0.319334 0.925389
vt 0.402445 0.616561
vt 0.385683 0.623613
vt 0.392193 0.983919
vt 0.190200 0.984210
vt 0.559016 0.973504
vt 0.284249 0.633318
vt 0.516607 0.977127
vt 0.537921 0.982941
vt 0.529122 0.908288
vn 0.828300 -0.209000 -0.519900
vn 0.562700 -0.214600 -0.798300
vn 0.855000 0.026300 -0.518000
vn 0.147100 0.405300 0.902200
vn 0.451300 0.497400 0.740800
vn 0.099000 0.751900 0.651800
vn 0.211700 -0.207900 -0.954900
vn -0.173000 -0.242000 -0.954700
vn -0.155100 0.084000 -0.984300
vn 0.689700 0.580500 -0.432900
vn 0.631400 0.769600 -0.094800
vn 0.571500 0.741700 -0.351000
vn -0.829200 -0.204500 0.520200
vn -0.983200 0.081800 0.163100
vn -0.963000 -0.213200 0.164900
vn 0.515500 -0.211500 0.830400
vn 0.158000 -0.217700 0.963100
vn 0.131300 -0.483000 0.865700
vn 0.138500 0.758500 -0.636800
vn 0.229000 0.418400 -0.878900
vn -0.133500 0.489800 -0.861500
vn -0.780300 0.397600 0.482700
vn -0.856200 0.498800 0.134300
vn -0.572800 -0.249400 0.780800
vn -0.511200 -0.586300 0.628400
vn -0.242700 -0.554800 0.795800
vn 0.171100 -0.493800 -0.852600
vn 0.254900 -0.905900 0.338100
vn -0.039800 -0.894200 -0.446000
vn 0.000600 -0.999900 -0.008300
vn 0.699400 -0.542800 0.465000
vn 0.840000 -0.509800 0.185600
vn 0.946700 -0.235400 0.219500
vn 0.020600 -0.911700 0.410400
vn -0.188700 -0.946600 0.261500
vn -0.008300 -0.999900 -0.008900
vn -0.798200 -0.199800 -0.568200
vn -0.725200 -0.475500 -0.498000
vn -0.953000 -0.212100 -0.216000
vn 0.560700 0.721300 0.406500
vn 0.741400 0.404500 0.535400
vn 0.867100 0.451300 0.210600
vn 0.971200 -0.182700 -0.152900
vn 0.960000 -0.167900 0.224000
vn 0.967200 -0.200400 -0.156200
vn -0.229300 -0.208500 0.950700
vn -0.575200 0.077600 0.814300
vn -0.199000 0.429900 0.880600
vn -0.506900 0.501200 0.701300
vn -0.474300 0.406700 -0.780800
vn -0.697300 0.511400 -0.502200
vn -0.352800 0.745400 -0.565600
vn -0.520000 0.021800 -0.853900
vn -0.515500 -0.212900 -0.830000
vn -0.803900 0.583600 0.114400
vn -0.706500 0.661900 0.250500
vn -0.702400 0.690100 -0.174400
vn 0.717100 0.597300 0.359000
vn 0.806100 0.583000 -0.101300
vn -0.635000 0.624600 -0.454600
vn -0.569600 0.786000 -0.240200
vn -0.506800 0.844100 0.175200
vn -0.155900 0.763400 0.626800
vn 0.343200 0.445400 -0.826900
vn 0.264500 0.822400 -0.503600
vn -0.161100 0.848100 -0.504700
vn 0.650700 0.759200 0.013800
vn 0.972100 0.065700 0.225000
vn 0.522900 0.832300 -0.184000
vn 0.381400 0.753400 -0.535600
vn 0.301600 0.611200 -0.731700
vn -0.010500 0.048400 0.998700
vn -0.077200 0.161700 0.983800
vn -0.612000 0.050400 0.789300
vn -0.564600 0.751600 0.340900
vn -0.595000 0.599000 0.535800
vn -0.201000 0.584600 0.786000
vn 0.558300 0.354900 0.749900
vn 0.530100 0.047700 0.846600
vn 0.533100 0.789000 0.305400
vn -0.268200 0.604400 -0.750200
vn -0.714400 0.605500 -0.350500
vn -0.484000 0.684700 -0.544800
vn 0.277900 0.604800 0.746300
vn 0.661100 0.733800 0.156300
vn 0.340900 0.771300 0.537400
vn -0.785500 0.056600 -0.616200
vn -0.431400 0.677400 0.595800
vn -0.043400 0.660900 0.749200
vn 0.547600 0.414000 -0.727100
vn 0.778700 0.405900 -0.478300
vn 0.401900 0.673800 0.620000
vn -0.510500 0.778900 -0.364300
vn -0.104100 0.708900 -0.697500
vn 0.450600 -0.493900 0.743600
vn 0.867100 0.480300 -0.132100
vn 0.969500 0.053600 0.239300
vn 0.988700 0.041900 -0.144000
vn -0.970900 0.106600 -0.214200
vn -0.845200 0.494000 -0.203600
vn -0.812700 0.111200 -0.571900
vn 0.793500 -0.218300 0.568000
vn -0.630100 0.763900 -0.139500
vn -0.627000 0.773100 0.095500
vn 0.810400 0.023400 0.585400
vn 0.198800 0.734900 0.648300
vn 0.656300 0.690100 0.305000
vn 0.731500 0.676200 -0.087000
vn -0.097000 0.765000 -0.636600
vn 0.156300 0.029600 0.987200
vn 0.530100 0.092000 0.842900
vn 0.177300 0.710600 -0.680900
vn 0.542700 0.678900 -0.494600
vn 0.803000 -0.277400 -0.527400
vn 0.479600 -0.471400 -0.740100
vn 0.307300 -0.895400 -0.322200
vn 0.946000 -0.277200 -0.167800
vn 0.744000 -0.472400 -0.472500
vn 0.823400 -0.539700 -0.175300
vn -0.545100 0.624200 0.559600
vn -0.266500 0.750500 0.604800
vn -0.225100 0.029800 0.973900
vn -0.191100 -0.494800 -0.847700
vn -0.859300 -0.496000 0.124600
vn -0.732400 -0.524600 0.433900
vn -0.426100 -0.891200 -0.155200
vn -0.383900 -0.916400 0.112800
vn 0.595500 0.035400 -0.802500
vn -0.844500 0.012700 0.535400
vn 0.237600 0.020200 -0.971100
vn -0.356200 0.768000 0.532200
vn -0.487800 -0.462500 -0.740300
vn 0.414700 -0.904300 0.101100
vn -0.270100 -0.892800 -0.360300
vn -0.855100 -0.486200 -0.180000
usemtl None
s 1
f 1/1/1 2/2/2 3/3/3
f 4/4/4 5/5/5 6/6/6
f 7/7/7 8/8/8 9/9/9
f 10/10/10 11/11/11 12/12/12
f 13/13/13 14/14/14 15/15/15
f 16/16/16 17/17/17 18/18/18
f 19/19/19 20/20/20 21/21/21
f 22/22/22 23/23/23 14/14/14
f 24/24/24 25/25/25 26/26/26
f 8/8/8 7/7/7 27/27/27
f 28/28/28 29/29/29 30/30/30
f 31/31/31 32/32/32 33/33/33
f 34/34/34 35/35/35 36/36/36
f 37/37/37 38/38/38 39/39/39
f 40/40/40 41/41/41 42/42/42
f 43/43/43 44/44/44 45/45/45
f 24/24/24 26/26/26 46/46/46
f 47/47/47 48/48/48 49/49/49
f 50/50/50 51/51/51 52/52/52
f 37/37/37 53/53/53 54/54/54
f 55/55/55 56/56/56 57/57/57
f 58/58/58 11/11/11 59/59/59
f 60/60/60 61/61/61 62/62/62
f 48/48/48 6/6/6 63/63/63
f 64/64/64 65/65/65 66/66/66
f 67/67/67 68/68/68 69/69/69
f 70/70/70 19/19/19 71/71/71
f 72/72/72 73/73/73 74/74/74
f 75/75/75 76/76/76 55/55/55
f 77/77/77 63/63/63 6/6/6
f 78/78/78 79/79/79 80/80/80
f 81/81/81 82/82/82 83/83/83
f 78/78/78 73/73/73 72/72/72
f 77/77/77 6/6/6 84/84/84
f 58/58/58 40/40/40 85/85/85
f 58/86/58 84/84/84 86/87/86
f 66/66/66 87/88/87 60/89/60
f 55/55/55 76/76/76 56/56/56
f 88/90/88 77/77/77 89/91/89
f 19/19/19 70/70/70 20/20/20
f 90/92/90 12/12/12 91/93/91
f 77/77/77 84/84/84 89/91/89
f 58/86/58 92/94/92 84/84/84
f 19/19/19 81/81/81 71/71/71
f 81/81/81 52/52/52 93/95/93
f 66/96/66 65/97/65 89/91/89
f 92/94/92 89/91/89 84/84/84
f 94/98/94 71/71/71 81/81/81
f 94/98/94 81/81/81 83/83/83
f 34/99/34 26/26/26 35/100/35
f 18/18/18 95/101/95 16/16/16
f 12/12/12 96/102/96 91/93/91
f 42/42/42 97/103/97 98/104/98
f 99/105/99 23/23/23 100/106/100
f 50/50/50 101/107/101 51/51/51
f 31/31/31 33/33/33 102/108/102
f 43/43/43 97/103/97 44/44/44
f 81/81/81 93/95/93 82/82/82
f 55/55/55 103/109/103 104/110/104
f 40/111/40 5/5/5 41/112/41
f 102/108/102 44/44/44 105/113/105
f 101/107/101 99/105/99 100/106/100
f 99/105/99 37/37/37 39/39/39
f 80/114/80 106/115/106 83/83/83
f 57/57/57 83/83/83 82/82/82
f 58/86/58 107/116/107 92/94/92
f 108/117/108 107/118/107 58/58/58
f 21/21/21 52/52/52 109/119/109
f 81/81/81 109/119/109 52/52/52
f 110/120/110 16/16/16 111/121/111
f 16/16/16 105/122/105 111/121/111
f 88/90/88 56/56/56 76/76/76
f 69/69/69 65/65/65 64/64/64
f 71/71/71 112/123/112 113/124/113
f 10/10/10 70/70/70 71/71/71
f 114/125/114 115/126/115 2/2/2
f 116/127/116 29/128/29 27/27/27
f 108/117/108 58/58/58 59/59/59
f 10/10/10 71/71/71 113/124/113
f 117/129/117 33/33/33 32/32/32
f 114/125/114 118/130/118 115/126/115
f 32/32/32 119/131/119 117/129/117
f 30/30/30 29/29/29 116/132/116
f 108/117/108 10/10/10 113/124/113
f 74/74/74 120/133/120 62/62/62
f 98/104/98 91/93/91 96/102/96
f 1/1/1 3/3/3 43/43/43
f 121/134/121 113/124/113 112/123/112
f 113/124/113 121/134/121 62/135/62
f 32/32/32 31/31/31 28/136/28
f 28/137/28 95/101/95 18/18/18
f 121/134/121 94/98/94 106/115/106
f 94/98/94 83/83/83 106/115/106
f 6/6/6 86/87/86 84/84/84
f 86/87/86 6/6/6 5/5/5
f 114/125/114 117/129/117 118/130/118
f 1/1/1 43/43/43 45/45/45
f 111/121/111 4/4/4 110/120/110
f 47/47/47 122/138/122 48/48/48
f 37/37/37 54/54/54 38/38/38
f 27/27/27 123/139/123 8/8/8
f 42/42/42 41/41/41 97/103/97
f 97/103/97 105/113/105 44/44/44
f 13/13/13 124/140/124 125/141/125
f 126/142/126 127/143/127 124/140/124
f 128/144/128 3/3/3 2/2/2
f 7/7/7 2/2/2 115/126/115
f 47/47/47 24/24/24 46/46/46
f 13/13/13 129/145/129 14/14/14
f 9/9/9 20/20/20 130/146/130
f 128/144/128 2/2/2 7/7/7
f 22/22/22 49/49/49 75/75/75
f 75/75/75 131/147/131 76/76/76
f 38/38/38 54/54/54 132/148/132
f 28/28/28 36/36/36 29/29/29
f 16/16/16 31/149/31 102/150/102
f 16/16/16 102/150/102 105/122/105
f 90/92/90 20/20/20 70/70/70
f 20/20/20 128/144/128 130/146/130
f 119/131/119 133/151/133 116/127/116
f 116/127/116 115/126/115 118/130/118
f 13/13/13 125/141/125 24/24/24
f 13/13/13 24/24/24 47/47/47
f 12/12/12 11/11/11 96/102/96
f 40/40/40 42/42/42 85/85/85
f 119/131/119 32/32/32 133/151/133
f 32/32/32 28/136/28 133/151/133
f 13/13/13 47/47/47 129/145/129
f 22/22/22 47/47/47 49/49/49
f 134/152/134 126/142/126 38/38/38
f 38/38/38 126/142/126 135/153/135
f 103/109/103 23/23/23 104/110/104
f 23/23/23 22/22/22 75/75/75
f 46/46/46 18/18/18 17/17/17
f 122/138/122 110/120/110 4/4/4
f 21/21/21 50/50/50 52/52/52
f 53/53/53 9/9/9 54/54/54
f 122/138/122 4/4/4 48/48/48
f 4/4/4 6/6/6 48/48/48
f 135/153/135 39/39/39 38/38/38
f 15/15/15 124/140/124 13/13/13
f 48/48/48 131/147/131 49/49/49
f 131/147/131 75/75/75 49/49/49
f 8/8/8 54/54/54 9/9/9
f 132/148/132 54/54/54 8/8/8
f 35/100/35 26/26/26 25/25/25
f 125/141/125 124/140/124 127/143/127
f 57/57/57 69/154/69 80/114/80
f 57/57/57 80/114/80 83/83/83
f 34/99/34 18/18/18 26/26/26
f 46/46/46 26/26/26 18/18/18
f 20/20/20 9/9/9 21/21/21
f 50/50/50 21/21/21 9/9/9
f 14/14/14 99/105/99 39/39/39
f 99/105/99 14/14/14 23/23/23
f 98/104/98 3/3/3 91/93/91
f 3/3/3 90/92/90 91/93/91
f 68/68/68 80/80/80 69/69/69
f 80/80/80 68/68/68 78/78/78
f 111/121/111 41/112/41 5/5/5
f 111/121/111 5/5/5 4/4/4
f 134/152/134 38/38/38 132/148/132
f 123/139/123 27/27/27 29/128/29
f 52/52/52 51/51/51 93/95/93
f 103/109/103 100/106/100 23/23/23
f 121/155/121 106/156/106 72/72/72
f 106/156/106 80/80/80 79/79/79
f 3/3/3 128/144/128 90/92/90
f 20/20/20 90/92/90 128/144/128
f 92/94/92 61/157/61 66/96/66
f 92/94/92 66/96/66 89/91/89
f 28/137/28 18/18/18 34/99/34
f 28/28/28 34/34/34 36/36/36
f 105/113/105 97/103/97 41/41/41
f 105/122/105 41/112/41 111/121/111
f 99/105/99 101/107/101 37/37/37
f 37/37/37 101/107/101 53/53/53
f 78/78/78 72/72/72 79/79/79
f 106/156/106 79/79/79 72/72/72
f 128/144/128 7/7/7 130/146/130
f 7/7/7 9/9/9 130/146/130
f 42/42/42 96/102/96 85/85/85
f 42/42/42 98/104/98 96/102/96
f 14/14/14 39/39/39 15/15/15
f 15/15/15 39/39/39 124/140/124
f 47/47/47 46/46/46 122/138/122
f 46/46/46 17/17/17 122/138/122
f 116/127/116 27/27/27 115/126/115
f 7/7/7 115/126/115 27/27/27
f 55/55/55 57/57/57 82/82/82
f 55/55/55 82/82/82 103/109/103
f 61/158/61 108/117/108 62/135/62
f 108/117/108 113/124/113 62/135/62
f 110/120/110 122/138/122 17/17/17
f 110/120/110 17/17/17 16/16/16
f 88/90/88 76/76/76 77/77/77
f 77/77/77 76/76/76 131/147/131
f 36/36/36 35/35/35 127/159/127
f 25/25/25 127/143/127 35/100/35
f 101/107/101 100/106/100 51/51/51
f 103/109/103 51/51/51 100/106/100
f 31/149/31 95/101/95 28/137/28
f 16/16/16 95/101/95 31/149/31
f 92/94/92 107/116/107 61/157/61
f 61/158/61 107/118/107 108/117/108
f 69/154/69 56/56/56 88/90/88
f 57/57/57 56/56/56 69/154/69
f 9/9/9 53/53/53 50/50/50
f 101/107/101 50/50/50 53/53/53
f 126/142/126 124/140/124 135/153/135
f 135/153/135 124/140/124 39/39/39
f 74/74/74 73/73/73 120/133/120
f 119/131/119 118/130/118 117/129/117
f 116/127/116 118/130/118 119/131/119
f 66/66/66 61/160/61 87/88/87
f 60/89/60 87/88/87 61/160/61
f 10/10/10 12/12/12 70/70/70
f 90/92/90 70/70/70 12/12/12
f 47/47/47 22/22/22 129/145/129
f 14/14/14 129/145/129 22/22/22
f 123/139/123 29/128/29 134/152/134
f 134/161/134 29/29/29 36/36/36
f 33/33/33 117/129/117 45/45/45
f 117/129/117 1/1/1 45/45/45
f 69/154/69 88/90/88 65/97/65
f 88/90/88 89/91/89 65/97/65
f 126/162/126 36/36/36 127/159/127
f 134/161/134 36/36/36 126/162/126
f 86/87/86 40/111/40 58/86/58
f 86/87/86 5/5/5 40/111/40
f 62/62/62 121/155/121 74/74/74
f 121/155/121 72/72/72 74/74/74
f 19/19/19 21/21/21 109/119/109
f 19/19/19 109/119/109 81/81/81
f 23/23/23 75/75/75 104/110/104
f 75/75/75 55/55/55 104/110/104
f 102/108/102 33/33/33 44/44/44
f 33/33/33 45/45/45 44/44/44
f 121/134/121 112/123/112 94/98/94
f 94/98/94 112/123/112 71/71/71
f 11/11/11 58/58/58 85/85/85
f 11/11/11 85/85/85 96/102/96
f 123/139/123 134/152/134 132/148/132
f 132/148/132 8/8/8 123/139/123
f 24/24/24 125/141/125 25/25/25
f 25/25/25 125/141/125 127/143/127
f 117/129/117 114/125/114 1/1/1
f 2/2/2 1/1/1 114/125/114
f 103/109/103 93/95/93 51/51/51
f 93/95/93 103/109/103 82/82/82
f 30/30/30 116/132/116 133/163/133
f 30/30/30 133/163/133 28/28/28
f 108/117/108 59/59/59 10/10/10
f 10/10/10 59/59/59 11/11/11
f 48/48/48 63/63/63 131/147/131
f 77/77/77 131/147/131 63/63/63
f 97/103/97 43/43/43 98/104/98
f 3/3/3 98/104/98 43/43/43
f 67/67/67 78/78/78 68/68/68
f 73/73/73 78/78/78 120/133/120
f 66/66/66 60/89/60 64/64/64
f 120/133/120 78/78/78 67/67/67
f 67/67/67 60/60/60 120/133/120
f 60/60/60 62/62/62 120/133/120
f 60/89/60 67/67/67 64/64/64
f 69/69/69 64/64/64 67/67/67
