# Blender v2.74 (sub 0) OBJ File: 'pOTS.blend'
# www.blender.org
mtllib Pot_A.mtl
o ZBrushPolyMesh3D.009
v 0.134974 0.295741 0.141106
v 0.082920 0.002182 0.069087
v 0.175792 0.296150 0.084529
v -0.024584 0.001123 -0.105331
v -0.076327 0.269217 -0.177795
v -0.013450 0.280123 -0.195516
v 0.200888 0.454573 -0.053623
v 0.170224 0.459238 -0.117484
v 0.090458 0.539255 -0.026877
v -0.151086 0.183829 0.032325
v -0.179726 0.365854 0.114633
v -0.208100 0.368440 0.047996
v 0.011426 0.286389 0.196251
v 0.012140 0.002374 0.107184
v 0.077836 0.290880 0.180366
v 0.007637 0.539194 0.089696
v 0.012800 0.462535 0.203193
v 0.083059 0.459359 0.185522
v -0.203802 0.463255 0.047257
v -0.170423 0.463690 0.116909
v -0.076472 0.542233 0.053902
v -0.020026 0.468998 -0.202133
v -0.086993 0.469265 -0.181648
v -0.046216 0.530368 -0.098913
v -0.183127 0.465509 -0.087910
v -0.205120 0.465306 -0.023038
v -0.086829 0.542870 -0.034127
v -0.168275 0.282943 -0.090517
v -0.108556 0.001923 -0.003940
v -0.155089 0.182908 -0.023638
v 0.057724 0.543506 0.059503
v 0.182941 0.453107 0.084645
v 0.084192 0.535498 0.038190
v -0.069840 0.542264 -0.063151
v -0.053879 0.541611 0.074462
v -0.059044 0.463473 0.194213
v -0.024615 0.540787 0.087157
v -0.044736 0.326327 -0.040432
v -0.054391 0.580111 -0.043607
v -0.065220 0.578221 -0.021597
v 0.048724 0.570362 0.045565
v 0.068193 0.571120 0.015330
v 0.061901 0.370480 0.005489
v 0.082796 0.520550 -0.086563
v 0.071348 0.607755 -0.031727
v 0.039761 0.577321 -0.061059
v 0.032659 0.406376 -0.057047
v 0.179191 0.386552 -0.124745
v 0.111762 0.276287 -0.158994
v 0.028682 0.003628 -0.105140
v 0.051182 0.272232 -0.186721
v 0.123763 0.373497 -0.177467
v 0.055807 0.387861 -0.210174
v 0.118544 0.459720 -0.171437
v 0.048937 0.466816 -0.198853
v 0.026983 0.538734 -0.095955
v -0.191833 0.392904 -0.096894
v -0.215066 0.387821 -0.027062
v -0.088581 0.395154 -0.196439
v -0.031512 0.310364 0.042800
v -0.040460 0.557337 0.052568
v -0.010794 0.417159 0.063995
v -0.066066 0.532580 0.014746
v -0.057315 0.399023 0.035222
v -0.065256 0.388687 -0.009587
v -0.088535 0.543504 0.028238
v -0.018102 0.394668 -0.215707
v 0.148239 0.385981 0.152508
v 0.191838 0.379944 0.090371
v 0.140179 0.456908 0.143479
v -0.077814 0.582288 0.012168
v -0.055987 0.605282 0.062581
v -0.083123 0.609475 0.017921
v -0.065392 0.610435 -0.056777
v -0.073766 0.571603 -0.027631
v -0.080852 0.610604 -0.028440
v 0.204306 0.453453 0.015757
v 0.092810 0.537712 0.006320
v 0.215077 0.381379 0.018122
v -0.090842 0.545837 -0.001695
v 0.104998 -0.000495 0.010724
v 0.210459 0.383684 -0.057139
v -0.054158 0.272655 0.182577
v -0.055244 0.000840 0.090488
v 0.069187 0.574381 -0.018928
v -0.084386 0.001707 -0.069455
v -0.134572 0.292606 -0.143778
v -0.148988 0.393912 -0.154272
v -0.119952 0.463017 0.165115
v -0.106098 0.260066 0.149222
v -0.040250 0.609530 -0.078079
v -0.066401 0.612833 -0.038659
v -0.026187 0.612707 -0.074243
v -0.036855 0.584664 -0.071848
v -0.058937 0.571545 -0.053124
v -0.062003 0.385244 0.206861
v 0.013408 0.387757 0.216199
v 0.032748 0.545680 0.074509
v 0.014175 0.424919 0.062824
v 0.036020 0.327359 0.047941
v 0.067476 0.574806 -0.047780
v 0.050562 0.607254 -0.073637
v 0.081150 0.604635 -0.035705
v -0.008306 0.584475 -0.081486
v 0.008424 0.609024 -0.090379
v 0.016468 0.592014 0.064934
v -0.015205 0.593688 0.065382
v -0.093580 0.003701 0.053470
v 0.071284 0.553677 -0.049803
v 0.078509 0.564297 -0.022863
v 0.074697 0.550403 0.032894
v 0.080576 0.561392 0.004476
v -0.001522 0.600343 0.082315
v 0.006669 0.561275 0.074952
v 0.033539 0.565904 0.066742
v -0.019124 0.561890 0.074755
v -0.007984 0.529645 -0.110566
v 0.022377 0.572720 -0.079076
v 0.086943 0.385854 0.196563
v -0.143801 0.466992 -0.141504
v 0.102615 0.000232 -0.025350
v 0.168382 0.315506 -0.116858
v 0.196641 0.314192 -0.053291
v 0.076757 0.001091 -0.074918
v -0.210478 0.412119 0.049577
v -0.179797 0.411701 0.118546
v 0.003660 0.555130 -0.072263
v 0.017829 0.612194 -0.077995
v 0.054142 0.595907 0.062712
v 0.071861 0.566251 0.030699
v 0.084382 0.599194 0.018074
v -0.126940 0.389795 0.174067
v -0.006748 0.558371 -0.085092
v -0.036752 0.557544 -0.076173
v -0.042884 0.563922 0.064601
v -0.062588 0.564126 0.047057
v -0.048010 0.609108 0.056888
v -0.013854 0.606070 0.071597
v 0.047728 0.329921 -0.035995
v -0.128782 0.177307 0.083063
v 0.056034 0.564869 0.051856
v 0.048582 0.562273 -0.067539
v -0.072767 0.612776 0.013714
v 0.074193 0.602733 0.018891
v 0.045400 0.600835 0.057607
v -0.080306 0.563005 0.013734
v 0.196792 0.297552 0.017543
v -0.115673 0.034197 0.023154
v 0.046789 0.611178 -0.064624
v -0.044225 0.600106 0.055010
v -0.057865 0.563310 0.033082
v -0.034205 0.580282 -0.062178
v -0.067155 0.564219 -0.000081
v 0.009893 0.603920 0.071135
v -0.007955 0.341110 -0.058567
v 0.020717 0.294014 -0.022440
vt 0.184213 0.159045
vt 0.031733 0.161852
vt 0.186201 0.129330
vt 0.025495 0.398224
vt 0.165489 0.405622
vt 0.170063 0.433841
vt 0.278913 0.078058
vt 0.307447 0.040443
vt 0.349294 0.139765
vt 0.130525 0.305424
vt 0.200534 0.284315
vt 0.201002 0.306572
vt 0.176844 0.211661
vt 0.035388 0.209289
vt 0.180177 0.186051
vt 0.303806 0.230569
vt 0.236527 0.217496
vt 0.239772 0.193555
vt 0.229669 0.306176
vt 0.230358 0.283190
vt 0.296629 0.283553
vt 0.247477 0.421569
vt 0.241673 0.395488
vt 0.294365 0.378710
vt 0.233333 0.348867
vt 0.231285 0.327461
vt 0.297799 0.334727
vt 0.170860 0.354533
vt 0.032016 0.318287
vt 0.129230 0.327686
vt 0.319525 0.198440
vt 0.252091 0.139952
vt 0.320942 0.175636
vt 0.300048 0.353586
vt 0.298690 0.266998
vt 0.233781 0.240369
vt 0.300834 0.249125
vt 0.448461 0.115500
vt 0.431129 0.030439
vt 0.441268 0.029286
vt 0.516345 0.029983
vt 0.530559 0.031641
vt 0.521126 0.104230
vt 0.326830 0.458766
vt 0.372152 0.466725
vt 0.287504 0.527578
vt 0.369368 0.040130
vt 0.389854 0.044217
vt 0.415731 0.102640
vt 0.256338 0.014392
vt 0.163320 0.499636
vt 0.020493 0.427757
vt 0.164815 0.463799
vt 0.219273 0.499672
vt 0.220751 0.461349
vt 0.265383 0.486501
vt 0.255140 0.449894
vt 0.320791 0.418073
vt 0.210034 0.352421
vt 0.207401 0.329828
vt 0.214846 0.401745
vt 0.479756 0.126536
vt 0.476472 0.034101
vt 0.488481 0.086302
vt 0.458532 0.045756
vt 0.470043 0.092171
vt 0.456640 0.096564
vt 0.296239 0.299179
vt 0.218449 0.429566
vt 0.219078 0.162404
vt 0.222297 0.133117
vt 0.245237 0.168252
vt 0.321083 0.307160
vt 0.336186 0.278078
vt 0.337537 0.305116
vt 0.339757 0.344787
vt 0.316150 0.331768
vt 0.337733 0.328092
vt 0.262953 0.110524
vt 0.334175 0.157351
vt 0.230093 0.100851
vt 0.297812 0.316060
vt 0.024494 0.126216
vt 0.240965 0.062652
vt 0.170376 0.236188
vt 0.034591 0.249759
vt 0.470231 0.490936
vt 0.452869 0.510069
vt 0.454973 0.443501
vt 0.543955 0.033001
vt 0.030439 0.358203
vt 0.175100 0.378831
vt 0.211904 0.376096
vt 0.231571 0.261725
vt 0.164372 0.258661
vt 0.344751 0.359303
vt 0.343968 0.335732
vt 0.351890 0.362919
vt 0.331437 0.364334
vt 0.319303 0.349571
vt 0.209013 0.238046
vt 0.212405 0.214279
vt 0.314659 0.215895
vt 0.497256 0.083726
vt 0.503418 0.113749
vt 0.372432 0.431746
vt 0.371696 0.401729
vt 0.396787 0.422255
vt 0.338454 0.381444
vt 0.355863 0.382434
vt 0.395321 0.491432
vt 0.501439 0.019805
vt 0.488323 0.018497
vt 0.412529 0.510899
vt 0.034231 0.280106
vt 0.361884 0.444326
vt 0.383384 0.450275
vt 0.332332 0.181181
vt 0.349837 0.167522
vt 0.340079 0.245675
vt 0.319551 0.234612
vt 0.327900 0.218145
vt 0.315768 0.250798
vt 0.394105 0.465513
vt 0.301564 0.401641
vt 0.342726 0.403269
vt 0.214831 0.189095
vt 0.236762 0.371187
vt 0.020419 0.105617
vt 0.199711 0.009747
vt 0.199041 0.056647
vt 0.421927 0.437661
vt 0.214304 0.306344
vt 0.214411 0.283926
vt 0.407255 0.047306
vt 0.009598 0.073433
vt 0.008614 0.458506
vt 0.364092 0.384077
vt 0.349751 0.214167
vt 0.342409 0.185804
vt 0.365654 0.187803
vt 0.208979 0.260729
vt 0.236711 0.548411
vt 0.181195 0.549674
vt 0.323596 0.390332
vt 0.315889 0.371254
vt 0.314322 0.267328
vt 0.312126 0.283555
vt 0.342187 0.276797
vt 0.343859 0.254100
vt 0.532418 0.126173
vt 0.128651 0.283242
vt 0.334151 0.201510
vt 0.470231 0.461029
vt 0.350984 0.424077
vt 0.343890 0.305979
vt 0.369124 0.193450
vt 0.354392 0.218946
vt 0.309545 0.306353
vt 0.188784 0.096369
vt 0.363163 0.153373
vt 0.391175 0.165110
vt 0.433975 0.516176
vt 0.053010 0.303074
vt 0.394462 0.172251
vt 0.377424 0.397873
vt 0.399696 0.415270
vt 0.474981 0.015813
vt 0.465358 0.032429
vt 0.394798 0.027077
vt 0.411547 0.021282
vt 0.420004 0.032906
vt 0.403497 0.448036
vt 0.453583 0.013086
vt 0.450907 0.033774
vt 0.489531 0.012917
vt 0.498787 0.014388
vt 0.513854 0.017122
vt 0.432577 0.016128
vt 0.532227 0.019190
vt 0.346803 0.240473
vt 0.383228 0.032016
vt 0.551196 0.021532
vt 0.474051 0.011736
vt 0.442730 0.437924
vt 0.435585 0.116796
vt 0.441290 0.142467
vt 0.419978 0.134687
vt 0.515747 0.140561
vn 0.683400 -0.236100 0.690800
vn 0.504300 -0.733800 0.455100
vn 0.869100 -0.241400 0.431600
vn -0.165400 -0.764700 -0.622700
vn -0.400200 -0.247300 -0.882400
vn -0.066400 -0.236800 -0.969300
vn 0.851300 0.487300 -0.194200
vn 0.714600 0.513800 -0.474700
vn 0.735000 0.654300 -0.177600
vn -0.937000 -0.272600 0.218400
vn -0.826500 -0.176400 0.534500
vn -0.958000 -0.184000 0.219700
vn 0.051600 -0.247300 0.967600
vn 0.088600 -0.740500 0.666200
vn 0.408800 -0.241800 0.880000
vn 0.104400 0.723800 0.682000
vn 0.067200 0.523900 0.849100
vn 0.384500 0.508900 0.770100
vn -0.841600 0.502400 0.198200
vn -0.689800 0.517300 0.506500
vn -0.551200 0.715900 0.428500
vn -0.094300 0.536500 -0.838600
vn -0.378300 0.536800 -0.754100
vn -0.273000 0.776700 -0.567600
vn -0.767100 0.511600 -0.387200
vn -0.853500 0.506800 -0.120600
vn -0.685900 0.673300 -0.275900
vn -0.876200 -0.252900 -0.410200
vn -0.654100 -0.754900 -0.047700
vn -0.959700 -0.269600 -0.079900
vn 0.550600 0.600000 0.580400
vn 0.784800 0.489800 0.379700
vn 0.610600 0.722800 0.323500
vn -0.548300 0.674200 -0.494900
vn -0.380600 0.702900 0.600900
vn -0.239200 0.519600 0.820200
vn -0.148600 0.702800 0.695600
vn 0.674200 0.525800 0.518600
vn 0.779000 0.110300 0.617200
vn 0.959000 0.095500 0.266900
vn -0.685800 0.114000 -0.718800
vn -0.955000 0.113700 -0.273800
vn -0.980300 0.154300 -0.122800
vn 0.454400 0.779700 -0.430700
vn -0.361600 0.899100 0.246400
vn -0.558300 0.121700 0.820600
vn -0.456400 0.078700 0.886300
vn 0.817500 -0.014000 -0.575700
vn 0.556700 -0.260400 -0.788800
vn 0.196100 -0.710600 -0.675700
vn 0.262800 -0.253000 -0.931100
vn 0.561400 -0.077300 -0.823900
vn 0.253100 -0.024800 -0.967100
vn 0.507800 0.484500 -0.712300
vn 0.209100 0.527600 -0.823400
vn 0.214900 0.684300 -0.696800
vn -0.886000 -0.023200 -0.463100
vn -0.987800 -0.066400 -0.140800
vn -0.424300 0.006000 -0.905500
vn 0.464700 0.673800 -0.574400
vn 0.611700 0.058000 -0.789000
vn 0.243300 0.078400 -0.966800
vn 0.964000 -0.003600 -0.265800
vn 0.805000 0.102600 -0.584200
vn 0.982400 0.134400 0.129300
vn -0.669700 0.703400 0.238000
vn -0.097300 0.002000 -0.995200
vn 0.708600 -0.010300 0.705500
vn 0.895000 -0.034100 0.444800
vn 0.622800 0.509200 0.594000
vn -0.983200 -0.053300 0.174800
vn -0.570200 0.459800 0.680700
vn -0.851200 0.458400 0.255400
vn -0.630600 0.532300 -0.564700
vn -0.941800 0.160800 -0.295100
vn -0.822300 0.524900 -0.219600
vn 0.863400 0.492200 0.110900
vn 0.734500 0.666900 0.125400
vn 0.991800 -0.031100 0.123800
vn -0.742700 0.669400 -0.014200
vn 0.626900 -0.773100 0.096400
vn 0.969600 -0.027100 -0.243200
vn -0.315600 -0.257700 0.913200
vn -0.323500 -0.762700 0.559900
vn -0.997800 0.063200 0.016800
vn -0.514000 -0.750800 -0.414700
vn -0.690400 -0.221900 -0.688500
vn -0.698000 -0.005500 -0.716100
vn -0.488900 0.511000 0.706900
vn -0.603000 -0.272500 0.749800
vn -0.438100 0.453300 -0.776200
vn 0.373300 0.907400 0.192900
vn 0.185300 0.926300 0.328100
vn -0.489100 -0.086600 -0.867900
vn -0.737500 0.143900 -0.659800
vn -0.297100 -0.034900 0.954200
vn 0.068300 -0.010100 0.997600
vn 0.338100 0.606000 0.720000
vn -0.274900 0.043100 -0.960500
vn -0.539000 0.495800 -0.680900
vn 0.817800 -0.017000 -0.575300
vn 0.527900 0.460100 -0.713900
vn 0.822300 0.495000 -0.280600
vn -0.165000 -0.086400 -0.982500
vn 0.051200 0.457700 -0.887600
vn -0.226800 0.217900 -0.949200
vn 0.212800 0.231700 -0.949200
vn -0.601600 -0.710600 0.364700
vn 0.769800 0.460100 -0.442400
vn 0.959700 0.170500 -0.223200
vn 0.803000 0.409700 0.432800
vn 0.974200 0.185400 0.128900
vn 0.043000 0.433300 0.900200
vn 0.172300 0.217800 0.960600
vn 0.408700 0.070000 0.910000
vn -0.203900 0.248100 0.947000
vn -0.053000 0.773700 -0.631300
vn 0.252400 0.102400 -0.962200
vn 0.428500 -0.017800 0.903300
vn -0.610000 0.520600 -0.597300
vn 0.614600 -0.767600 -0.181900
vn 0.798500 -0.239800 -0.552100
vn 0.939900 -0.248100 -0.234500
vn 0.469800 -0.759900 -0.449300
vn -0.971800 0.045700 0.231200
vn -0.824200 0.060100 0.563000
vn -0.007300 0.094800 0.995500
vn -0.008400 0.919200 0.393600
vn 0.571100 0.390900 0.721800
vn 0.882900 0.021000 0.469000
vn 0.852100 0.454300 0.259700
vn -0.584600 -0.041800 0.810200
vn -0.095800 0.427000 -0.899100
vn -0.430400 0.436200 -0.790200
vn -0.498000 0.225000 0.837500
vn -0.777500 0.282900 0.561600
vn 0.244600 0.965400 -0.090300
vn 0.061400 0.984200 -0.166000
vn -0.747800 0.425300 0.509800
vn -0.833600 -0.268600 0.482700
vn 0.699800 0.056100 0.712100
vn 0.565500 0.295100 -0.770200
vn 0.420700 0.905800 -0.050800
vn -0.343500 0.939100 0.010700
vn -0.142300 0.962100 -0.232600
vn -0.910400 0.372400 0.179900
vn 0.960300 -0.254500 0.114400
vn -0.933200 -0.283500 0.220600
vn -0.186800 0.934800 0.302000
vn 0.615800 0.242000 -0.749800
vn 0.856100 0.095500 -0.507900
vn 0.541700 0.122300 0.831600
vn 0.996400 0.084200 -0.011600
vn 0.127000 0.965500 -0.227500
vn 0.064600 0.304600 0.950300
vn -0.269100 0.924700 0.269300
usemtl None
s 1
f 1/1/1 2/2/2 3/3/3
f 4/4/4 5/5/5 6/6/6
f 7/7/7 8/8/8 9/9/9
f 10/10/10 11/11/11 12/12/12
f 13/13/13 14/14/14 15/15/15
f 16/16/16 17/17/17 18/18/18
f 19/19/19 20/20/20 21/21/21
f 22/22/22 23/23/23 24/24/24
f 25/25/25 26/26/26 27/27/27
f 28/28/28 29/29/29 30/30/30
f 31/31/31 32/32/32 33/33/33
f 23/23/23 34/34/34 24/24/24
f 35/35/35 36/36/36 37/37/37
f 38/38/38 39/39/39 40/40/40
f 41/41/41 42/42/42 43/43/43
f 44/44/44 9/45/9 8/46/8
f 45/47/45 46/48/46 47/49/47
f 7/7/7 48/50/48 8/8/8
f 49/51/49 50/52/50 51/53/51
f 52/54/52 53/55/53 54/56/54
f 54/56/54 55/57/55 56/58/56
f 25/25/25 57/59/57 58/60/58
f 22/22/22 59/61/59 23/23/23
f 60/62/60 61/63/61 62/64/62
f 63/65/63 64/66/64 65/67/65
f 63/65/63 61/63/61 64/66/64
f 19/19/19 21/21/21 66/68/66
f 54/56/54 53/55/53 55/57/55
f 22/22/22 67/69/67 59/61/59
f 32/32/32 68/70/68 69/71/69
f 31/31/31 70/72/70 32/32/32
f 71/73/71 72/74/72 73/75/73
f 74/76/74 75/77/75 76/78/76
f 32/32/32 77/79/77 78/80/78
f 32/32/32 79/81/79 77/79/77
f 76/78/76 75/77/75 71/73/71
f 27/27/27 26/26/26 80/82/80
f 3/3/3 2/2/2 81/83/81
f 7/7/7 82/84/82 48/50/48
f 83/85/83 84/86/84 14/14/14
f 14/87/14 84/88/84 81/89/81
f 85/90/85 43/43/43 42/42/42
f 32/32/32 78/80/78 33/33/33
f 5/5/5 86/91/86 87/92/87
f 23/23/23 59/61/59 88/93/88
f 89/94/89 36/36/36 35/35/35
f 83/85/83 90/95/90 84/86/84
f 91/96/91 92/97/92 93/98/93
f 94/99/94 95/100/95 74/76/74
f 89/94/89 96/101/96 36/36/36
f 97/102/97 18/18/18 17/17/17
f 16/16/16 18/18/18 98/103/98
f 99/104/99 41/41/41 100/105/100
f 101/106/101 102/107/102 103/108/103
f 104/109/104 91/96/91 105/110/105
f 81/89/81 84/88/84 86/111/86
f 28/28/28 86/91/86 29/29/29
f 106/112/106 41/41/41 99/104/99
f 61/63/61 107/113/107 62/64/62
f 29/114/29 86/111/86 84/88/84
f 108/115/108 84/86/84 90/95/90
f 9/45/9 109/116/109 110/117/110
f 111/118/111 78/80/78 112/119/112
f 113/120/113 114/121/114 115/122/115
f 72/74/72 116/123/116 113/120/113
f 4/4/4 86/91/86 5/5/5
f 4/124/4 81/89/81 86/111/86
f 55/57/55 117/125/117 56/58/56
f 118/126/118 104/109/104 105/110/105
f 32/32/32 70/72/70 68/70/68
f 97/102/97 119/127/119 18/18/18
f 23/23/23 120/128/120 34/34/34
f 23/23/23 88/93/88 120/128/120
f 98/103/98 18/18/18 70/72/70
f 119/127/119 70/72/70 18/18/18
f 121/129/121 122/130/122 123/131/123
f 4/124/4 124/132/124 81/89/81
f 25/25/25 58/60/58 26/26/26
f 19/19/19 125/133/125 126/134/126
f 102/107/102 118/126/118 105/110/105
f 46/48/46 127/135/127 47/49/47
f 121/129/121 124/136/124 122/130/122
f 124/137/124 50/52/50 49/51/49
f 26/26/26 125/133/125 19/19/19
f 26/26/26 19/19/19 66/68/66
f 128/138/128 105/110/105 93/98/93
f 105/110/105 91/96/91 93/98/93
f 129/139/129 130/140/130 131/141/131
f 131/141/131 130/140/130 112/119/112
f 89/94/89 132/142/132 96/101/96
f 19/19/19 126/134/126 20/20/20
f 48/143/48 52/54/52 54/56/54
f 122/144/122 124/137/124 49/51/49
f 56/58/56 117/125/117 133/145/133
f 24/24/24 34/34/34 134/146/134
f 72/74/72 135/147/135 116/123/116
f 71/73/71 136/148/136 72/74/72
f 119/127/119 68/70/68 70/72/70
f 15/15/15 2/2/2 1/1/1
f 44/44/44 8/46/8 54/56/54
f 8/46/8 48/143/48 54/56/54
f 73/75/73 72/74/72 137/149/137
f 72/74/72 138/150/138 137/149/137
f 30/30/30 10/10/10 12/12/12
f 26/26/26 58/60/58 125/133/125
f 43/43/43 85/90/85 139/151/139
f 20/20/20 126/134/126 132/142/132
f 90/95/90 11/11/11 140/152/140
f 40/40/40 63/65/63 65/67/65
f 74/76/74 76/78/76 92/97/92
f 129/139/129 141/153/141 130/140/130
f 113/120/113 115/122/115 129/139/129
f 120/128/120 88/93/88 57/59/57
f 87/92/87 86/91/86 28/28/28
f 81/89/81 2/154/2 14/87/14
f 15/15/15 14/14/14 2/2/2
f 44/44/44 54/56/54 56/58/56
f 118/126/118 102/107/102 142/155/142
f 73/75/73 137/149/137 143/156/143
f 76/78/76 143/156/143 92/97/92
f 20/20/20 89/94/89 35/35/35
f 20/20/20 132/142/132 89/94/89
f 44/44/44 56/58/56 142/155/142
f 9/45/9 44/44/44 109/116/109
f 129/139/129 144/157/144 145/158/145
f 113/120/113 129/139/129 145/158/145
f 76/78/76 71/73/71 73/75/73
f 76/78/76 73/75/73 143/156/143
f 111/118/111 112/119/112 130/140/130
f 31/31/31 111/118/111 130/140/130
f 118/126/118 56/58/56 133/145/133
f 142/155/142 56/58/56 118/126/118
f 31/31/31 130/140/130 141/153/141
f 114/121/114 98/103/98 115/122/115
f 75/77/75 146/159/146 71/73/71
f 146/159/146 136/148/136 71/73/71
f 36/36/36 96/101/96 97/102/97
f 13/13/13 83/85/83 14/14/14
f 77/79/77 7/7/7 9/9/9
f 77/79/77 82/84/82 7/7/7
f 67/69/67 5/5/5 59/61/59
f 59/61/59 5/5/5 87/92/87
f 147/160/147 81/83/81 123/131/123
f 77/79/77 79/81/79 82/84/82
f 131/141/131 110/161/110 103/162/103
f 110/117/110 101/106/101 103/108/103
f 29/114/29 84/88/84 108/163/108
f 30/30/30 148/164/148 10/10/10
f 135/147/135 35/35/35 37/37/37
f 146/159/146 21/21/21 136/148/136
f 131/141/131 103/162/103 45/165/45
f 149/166/149 45/167/45 103/108/103
f 134/146/134 34/34/34 95/100/95
f 75/77/75 27/27/27 80/82/80
f 149/166/149 103/108/103 102/107/102
f 149/166/149 102/107/102 105/110/105
f 61/63/61 150/168/150 107/113/107
f 151/169/151 150/168/150 61/63/61
f 55/57/55 53/55/53 67/69/67
f 50/52/50 6/6/6 51/53/51
f 128/170/128 93/171/93 127/135/127
f 127/135/127 152/172/152 38/38/38
f 129/139/129 131/141/131 144/157/144
f 131/141/131 45/165/45 144/157/144
f 37/37/37 36/36/36 17/17/17
f 36/36/36 97/102/97 17/17/17
f 78/80/78 110/161/110 112/119/112
f 131/141/131 112/119/112 110/161/110
f 55/57/55 67/69/67 22/22/22
f 55/57/55 22/22/22 117/125/117
f 114/121/114 16/16/16 98/103/98
f 135/147/135 37/37/37 116/123/116
f 64/66/64 61/63/61 60/62/60
f 3/3/3 81/83/81 147/160/147
f 32/32/32 69/71/69 79/81/79
f 120/128/120 57/59/57 25/25/25
f 120/128/120 25/25/25 27/27/27
f 53/55/53 6/6/6 67/69/67
f 67/69/67 6/6/6 5/5/5
f 124/132/124 4/124/4 50/173/50
f 50/52/50 4/4/4 6/6/6
f 10/10/10 140/152/140 11/11/11
f 148/164/148 140/152/140 10/10/10
f 59/61/59 87/92/87 88/93/88
f 88/93/88 87/92/87 28/28/28
f 151/169/151 143/174/143 150/168/150
f 40/40/40 143/174/143 153/175/153
f 68/70/68 119/127/119 15/15/15
f 13/13/13 15/15/15 119/127/119
f 150/168/150 138/176/138 107/113/107
f 106/112/106 154/177/154 145/178/145
f 96/101/96 13/13/13 97/102/97
f 13/13/13 119/127/119 97/102/97
f 39/39/39 93/171/93 92/179/92
f 93/171/93 152/172/152 127/135/127
f 106/112/106 145/178/145 41/41/41
f 41/41/41 145/178/145 144/180/144
f 49/51/49 51/53/51 53/55/53
f 51/53/51 6/6/6 53/55/53
f 96/101/96 90/95/90 83/85/83
f 96/101/96 83/85/83 13/13/13
f 107/113/107 154/177/154 106/112/106
f 107/113/107 106/112/106 99/104/99
f 88/93/88 28/28/28 57/59/57
f 57/59/57 28/28/28 58/60/58
f 39/39/39 92/179/92 40/40/40
f 40/40/40 92/179/92 143/174/143
f 68/70/68 15/15/15 1/1/1
f 68/70/68 1/1/1 3/3/3
f 82/84/82 122/130/122 48/50/48
f 48/143/48 122/144/122 52/54/52
f 101/106/101 142/155/142 102/107/102
f 44/44/44 142/155/142 109/116/109
f 148/164/148 108/115/108 140/152/140
f 108/115/108 90/95/90 140/152/140
f 68/70/68 3/3/3 69/71/69
f 69/71/69 3/3/3 147/160/147
f 101/106/101 109/116/109 142/155/142
f 110/117/110 109/116/109 101/106/101
f 122/144/122 49/51/49 52/54/52
f 49/51/49 53/55/53 52/54/52
f 96/101/96 132/142/132 90/95/90
f 11/11/11 90/95/90 132/142/132
f 74/76/74 95/100/95 75/77/75
f 95/100/95 27/27/27 75/77/75
f 78/80/78 9/9/9 110/161/110
f 77/79/77 9/9/9 78/80/78
f 28/28/28 30/30/30 58/60/58
f 30/30/30 12/12/12 58/60/58
f 118/126/118 133/145/133 104/109/104
f 134/146/134 95/100/95 94/99/94
f 100/105/100 41/41/41 43/43/43
f 72/74/72 113/120/113 138/150/138
f 113/120/113 145/158/145 154/181/154
f 149/166/149 105/110/105 128/138/128
f 46/48/46 128/170/128 127/135/127
f 107/113/107 99/104/99 62/64/62
f 62/64/62 99/104/99 100/105/100
f 95/100/95 34/34/34 27/27/27
f 120/128/120 27/27/27 34/34/34
f 63/65/63 151/169/151 61/63/61
f 153/175/153 143/174/143 151/169/151
f 72/74/72 136/148/136 135/147/135
f 136/148/136 35/35/35 135/147/135
f 46/48/46 45/47/45 149/182/149
f 46/48/46 149/182/149 128/170/128
f 63/65/63 153/175/153 151/169/151
f 40/40/40 153/175/153 63/65/63
f 113/120/113 116/123/116 114/121/114
f 116/123/116 16/16/16 114/121/114
f 45/183/45 42/42/42 144/180/144
f 41/41/41 144/180/144 42/42/42
f 143/174/143 137/184/137 150/168/150
f 150/168/150 137/184/137 138/176/138
f 94/99/94 74/76/74 91/96/91
f 91/96/91 74/76/74 92/97/92
f 12/12/12 11/11/11 126/134/126
f 11/11/11 132/142/132 126/134/126
f 45/183/45 85/90/85 42/42/42
f 85/90/85 45/183/45 139/151/139
f 117/125/117 134/146/134 133/145/133
f 133/145/133 134/146/134 94/99/94
f 58/60/58 12/12/12 125/133/125
f 12/12/12 126/134/126 125/133/125
f 81/89/81 124/132/124 121/185/121
f 81/83/81 121/129/121 123/131/123
f 104/109/104 94/99/94 91/96/91
f 133/145/133 94/99/94 104/109/104
f 98/103/98 31/31/31 141/153/141
f 98/103/98 70/72/70 31/31/31
f 79/81/79 123/131/123 82/84/82
f 82/84/82 123/131/123 122/130/122
f 117/125/117 24/24/24 134/146/134
f 22/22/22 24/24/24 117/125/117
f 75/77/75 80/82/80 146/159/146
f 146/159/146 66/68/66 21/21/21
f 129/139/129 115/122/115 141/153/141
f 98/103/98 141/153/141 115/122/115
f 69/71/69 147/160/147 79/81/79
f 79/81/79 147/160/147 123/131/123
f 20/20/20 35/35/35 21/21/21
f 136/148/136 21/21/21 35/35/35
f 152/172/152 39/39/39 38/38/38
f 39/39/39 152/172/152 93/171/93
f 146/159/146 80/82/80 66/68/66
f 80/82/80 26/26/26 66/68/66
f 148/164/148 29/29/29 108/115/108
f 30/30/30 29/29/29 148/164/148
f 37/37/37 17/17/17 16/16/16
f 116/123/116 37/37/37 16/16/16
f 113/120/113 154/181/154 138/150/138
f 107/113/107 138/176/138 154/177/154
f 111/118/111 33/33/33 78/80/78
f 31/31/31 33/33/33 111/118/111
f 38/38/38 40/40/40 65/67/65
f 65/67/65 64/66/64 60/62/60
f 65/67/65 60/62/60 38/38/38
f 100/105/100 43/43/43 139/151/139
f 47/49/47 127/135/127 155/186/155
f 38/38/38 60/62/60 156/187/156
f 139/188/139 45/47/45 47/49/47
f 139/188/139 47/49/47 155/186/155
f 156/189/156 60/62/60 100/105/100
f 60/62/60 62/64/62 100/105/100
f 156/187/156 155/186/155 38/38/38
f 127/135/127 38/38/38 155/186/155
f 100/105/100 139/151/139 156/189/156
f 139/188/139 155/186/155 156/187/156
