# Blender v2.71 (sub 0) OBJ File: 'Shotgun.blend'
# www.blender.org
mtllib single bullet2.mtl
o Cylinder.003
v 0.998344 -0.001287 0.013218
v 0.998344 -0.001287 0.157199
v 0.864370 -0.501287 0.013218
v 0.864370 -0.501287 0.157199
v 0.498345 -0.867313 0.013217
v 0.498345 -0.867313 0.157198
v -0.001655 -1.001288 0.013217
v -0.001655 -1.001288 0.157198
v -0.501655 -0.867314 0.013217
v -0.501655 -0.867314 0.157198
v -0.867681 -0.501289 0.013216
v -0.867681 -0.501289 0.157197
v -1.001656 -0.001289 0.013216
v -1.001656 -0.001289 0.157197
v -0.867682 0.498711 0.013216
v -0.867682 0.498711 0.157197
v -0.501657 0.864737 0.013217
v -0.501657 0.864737 0.157198
v -0.001657 0.998712 0.013217
v -0.001657 0.998712 0.157198
v 0.498343 0.864738 0.013217
v 0.498343 0.864738 0.157198
v 0.864369 0.498713 0.013218
v 0.864369 0.498713 0.157199
v 0.843820 -0.001287 0.157199
v 0.730548 -0.424025 0.157198
v 0.421082 -0.733491 0.157198
v -0.001655 -0.846764 0.157198
v -0.424393 -0.733492 0.157198
v -0.733859 -0.424027 0.157197
v -0.847132 -0.001289 0.157197
v -0.733860 0.421449 0.157197
v -0.424395 0.730915 0.157198
v -0.001657 0.844188 0.157198
v 0.421081 0.730916 0.157198
v 0.730547 0.421451 0.157198
v 0.843820 -0.001287 0.253077
v 0.730548 -0.424025 0.253077
v 0.421082 -0.733491 0.253077
v -0.001655 -0.846764 0.253077
v -0.424393 -0.733492 0.253076
v -0.733859 -0.424027 0.253076
v -0.847132 -0.001289 0.253076
v -0.733860 0.421449 0.253076
v -0.424395 0.730915 0.253076
v -0.001657 0.844188 0.253077
v 0.421081 0.730916 0.253077
v 0.730547 0.421451 0.253077
v 1.002551 -0.001287 0.358544
v 0.868013 -0.503391 0.358544
v 0.500448 -0.870957 0.358544
v -0.001655 -1.005495 0.358543
v -0.503759 -0.870957 0.358543
v -0.871325 -0.503392 0.358543
v -1.005864 -0.001289 0.358542
v -0.871326 0.500815 0.358543
v -0.503761 0.868380 0.358543
v -0.001658 1.002919 0.358543
v 0.500446 0.868382 0.358544
v 0.868012 0.500817 0.358544
v 1.002549 -0.001287 3.580068
v 0.868011 -0.503391 3.580068
v 0.500446 -0.870957 3.580068
v -0.001658 -1.005495 3.580068
v -0.503762 -0.870957 3.580067
v -0.871327 -0.503392 3.580067
v -1.005866 -0.001289 3.580067
v -0.871328 0.500815 3.580067
v -0.503763 0.868380 3.580067
v -0.001660 1.002919 3.580068
v 0.500444 0.868382 3.580068
v 0.868010 0.500817 3.580068
v 0.971081 -0.001287 3.486961
v 0.840759 -0.487657 3.486961
v 0.484712 -0.843704 3.486960
v -0.001658 -0.974027 3.486960
v -0.488027 -0.843705 3.486959
v -0.844075 -0.487658 3.486959
v -0.974398 -0.001289 3.486959
v -0.844076 0.485081 3.486959
v -0.488029 0.841128 3.486959
v -0.001660 0.971451 3.486960
v 0.484710 0.841130 3.486960
v 0.840758 0.485083 3.486961
v 0.963167 -0.001287 3.901216
v 0.833905 -0.483700 3.901216
v 0.480755 -0.836851 3.901216
v -0.001658 -0.966114 3.901215
v -0.484071 -0.836852 3.901215
v -0.837222 -0.483702 3.901214
v -0.966485 -0.001289 3.901214
v -0.837223 0.481124 3.901214
v -0.484073 0.834275 3.901215
v -0.001660 0.963538 3.901215
v 0.480753 0.834276 3.901216
v 0.833904 0.481126 3.901216
v 0.912048 -0.001287 4.267409
v 0.789635 -0.458141 4.267409
v 0.455195 -0.792581 4.267409
v -0.001658 -0.914995 4.267408
v -0.458512 -0.792582 4.267408
v -0.792952 -0.458142 4.267408
v -0.915367 -0.001289 4.267408
v -0.792953 0.455565 4.267408
v -0.458514 0.790005 4.267408
v -0.001660 0.912419 4.267408
v 0.455193 0.790006 4.267409
v 0.789634 0.455567 4.267409
v 0.795615 -0.001287 4.846660
v 0.688801 -0.399924 4.846660
v 0.396978 -0.691747 4.846660
v -0.001659 -0.798562 4.846659
v -0.400296 -0.691748 4.846659
v -0.692119 -0.399926 4.846659
v -0.798934 -0.001289 4.846659
v -0.692120 0.397348 4.846659
v -0.400298 0.689171 4.846659
v -0.001661 0.795986 4.846659
v 0.396976 0.689172 4.846660
v 0.688800 0.397350 4.846660
v 0.545020 -0.001287 5.179563
v 0.471779 -0.274627 5.179563
v 0.271680 -0.474726 5.179562
v -0.001659 -0.547968 5.179562
v -0.274999 -0.474727 5.179562
v -0.475098 -0.274628 5.179562
v -0.548340 -0.001289 5.179562
v -0.475099 0.272051 5.179562
v -0.275000 0.472150 5.179562
v -0.001661 0.545392 5.179562
v 0.271679 0.472151 5.179562
v 0.471778 0.272053 5.179563
v 0.171243 -0.001288 5.266117
v 0.148079 -0.087740 5.266117
v 0.084792 -0.151027 5.266117
v -0.001660 -0.174192 5.266117
v -0.088112 -0.151027 5.266117
v -0.151399 -0.087740 5.266117
v -0.174564 -0.001288 5.266117
v -0.151399 0.085164 5.266117
v -0.088112 0.148451 5.266117
v -0.001660 0.171616 5.266117
v 0.084791 0.148451 5.266117
v 0.148079 0.085164 5.266117
vt 0.731780 0.030227
vt 0.730730 0.049633
vt 0.662872 0.047144
vt 0.663819 0.027537
vt 0.594444 0.044889
vt 0.595329 0.025137
vt 0.525562 0.042788
vt 0.526406 0.022911
vt 0.456265 0.040812
vt 0.457071 0.020811
vt 0.386539 0.038988
vt 0.387291 0.018848
vt 0.316330 0.037425
vt 0.316978 0.017111
vt 0.245550 0.036411
vt 0.245947 0.015845
vt 0.174145 0.036723
vt 0.173740 0.015772
vt 0.100886 0.042120
vt 0.099376 0.020037
vt 0.928698 0.042852
vt 0.927229 0.060741
vt 0.862995 0.055555
vt 0.864382 0.037570
vt 0.797718 0.052447
vt 0.796292 0.073622
vt 0.729416 0.071212
vt 0.798939 0.033431
vt 0.759615 0.609042
vt 0.818753 0.574899
vt 0.887040 0.574899
vt 0.946178 0.609042
vt 0.980322 0.668180
vt 0.980322 0.736467
vt 0.946178 0.795605
vt 0.887040 0.829748
vt 0.818753 0.829748
vt 0.759615 0.795605
vt 0.725472 0.736467
vt 0.725472 0.668180
vt 0.795600 0.087297
vt 0.728733 0.085103
vt 0.861564 0.075331
vt 0.921458 0.077888
vt 0.174453 0.060037
vt 0.109065 0.064260
vt 0.244935 0.059204
vt 0.315431 0.059993
vt 0.385517 0.061386
vt 0.455178 0.063064
vt 0.524433 0.064903
vt 0.593273 0.066862
vt 0.661644 0.068951
vt 0.794241 0.113771
vt 0.727382 0.111889
vt 0.860983 0.088985
vt 0.921319 0.089683
vt 0.174595 0.074699
vt 0.109940 0.076863
vt 0.244677 0.073779
vt 0.314991 0.074494
vt 0.384993 0.075799
vt 0.454611 0.077392
vt 0.523839 0.079146
vt 0.592655 0.081014
vt 0.660997 0.082993
vt 0.796033 0.516738
vt 0.727975 0.516581
vt 0.860188 0.115604
vt 0.927401 0.114956
vt 0.173988 0.101342
vt 0.105101 0.100333
vt 0.243936 0.101703
vt 0.314034 0.102409
vt 0.383893 0.103571
vt 0.453431 0.105009
vt 0.522611 0.106604
vt 0.591391 0.108295
vt 0.659693 0.110058
vt 0.795953 0.529799
vt 0.727997 0.529810
vt 0.863128 0.517965
vt 0.928698 0.521853
vt 0.170616 0.517691
vt 0.097803 0.521417
vt 0.241690 0.516906
vt 0.312094 0.516814
vt 0.382136 0.516853
vt 0.451889 0.516879
vt 0.521363 0.516857
vt 0.590550 0.516784
vt 0.659435 0.516672
vt 0.591458 0.657618
vt 0.657988 0.714052
vt 0.608616 0.761257
vt 0.554037 0.711679
vt 0.862662 0.530573
vt 0.926934 0.534294
vt 0.171093 0.531521
vt 0.099721 0.535542
vt 0.241801 0.530587
vt 0.312119 0.530418
vt 0.382147 0.530400
vt 0.451906 0.530372
vt 0.521390 0.530296
vt 0.590587 0.530166
vt 0.659475 0.529989
vt 0.568205 0.796541
vt 0.523967 0.752293
vt 0.714467 0.783801
vt 0.655448 0.824326
vt 0.762287 0.862420
vt 0.696559 0.900243
vt 0.017725 0.869754
vt 0.053512 0.806572
vt 0.103052 0.837152
vt 0.069859 0.898944
vt 0.094930 0.745521
vt 0.140439 0.781471
vt 0.145592 0.689977
vt 0.184763 0.733178
vt 0.206754 0.643825
vt 0.236943 0.694462
vt 0.277533 0.610912
vt 0.296238 0.667717
vt 0.355331 0.594430
vt 0.360625 0.655052
vt 0.436405 0.596462
vt 0.427220 0.657916
vt 0.516492 0.617748
vt 0.492746 0.676893
vt 0.508580 0.840557
vt 0.480423 0.805212
vt 0.605224 0.854152
vt 0.635715 0.926485
vt 0.146377 0.861765
vt 0.118938 0.921932
vt 0.178174 0.810055
vt 0.216031 0.767033
vt 0.260364 0.733614
vt 0.310342 0.711178
vt 0.364203 0.701092
vt 0.419553 0.704361
vt 0.473689 0.721449
vt 0.466534 0.862991
vt 0.449253 0.836459
vt 0.528215 0.887425
vt 0.536504 0.949199
vt 0.215251 0.891906
vt 0.202869 0.949200
vt 0.235258 0.847388
vt 0.261729 0.812527
vt 0.293721 0.786632
vt 0.329957 0.769982
vt 0.368792 0.763135
vt 0.408268 0.766583
vt 0.446227 0.780588
vt 0.416127 0.881251
vt 0.408614 0.869872
vt 0.474925 0.896982
vt 0.469738 0.937961
vt 0.268219 0.902773
vt 0.270839 0.946575
vt 0.277568 0.868398
vt 0.294481 0.841440
vt 0.316790 0.821530
vt 0.342808 0.808881
vt 0.370883 0.803853
vt 0.399261 0.806735
vt 0.426062 0.817632
vt 0.368554 0.917076
vt 0.358329 0.911172
vt 0.352425 0.900947
vt 0.352425 0.889140
vt 0.358329 0.878915
vt 0.368554 0.873011
vt 0.380361 0.873011
vt 0.390586 0.878915
vt 0.396490 0.889140
vt 0.396490 0.900947
vt 0.390586 0.911172
vt 0.380361 0.917076
vt 0.419005 0.894889
vt 0.415611 0.908822
vt 0.328375 0.903021
vt 0.331846 0.917613
vt 0.330402 0.888771
vt 0.336742 0.876223
vt 0.346370 0.866260
vt 0.358312 0.859501
vt 0.371577 0.856365
vt 0.385125 0.857074
vt 0.397860 0.861648
vn 0.757100 0.000000 -0.653200
vn 0.757100 0.000000 0.653200
vn 0.655700 -0.378600 0.653200
vn 0.655700 -0.378600 -0.653200
vn 0.378600 -0.655700 0.653200
vn 0.378600 -0.655700 -0.653200
vn 0.000000 -0.757100 0.653200
vn 0.000000 -0.757100 -0.653200
vn -0.378600 -0.655700 0.653200
vn -0.378600 -0.655700 -0.653200
vn -0.655700 -0.378600 0.653200
vn -0.655700 -0.378600 -0.653200
vn -0.757100 0.000000 0.653200
vn -0.757100 0.000000 -0.653200
vn -0.655700 0.378600 0.653200
vn -0.655700 0.378600 -0.653200
vn -0.378600 0.655700 0.653200
vn -0.378600 0.655700 -0.653200
vn 0.000000 0.757100 0.653200
vn 0.000000 0.757100 -0.653200
vn 0.378600 0.655700 0.653200
vn 0.378600 0.655700 -0.653200
vn 0.655700 0.378600 0.653200
vn 0.552300 0.318900 0.770300
vn 0.637700 0.000000 0.770300
vn 0.655700 0.378600 -0.653200
vn 0.745800 0.430600 -0.508300
vn 0.861200 0.000000 -0.508300
vn 0.318900 0.552300 0.770300
vn 0.000000 0.637700 0.770300
vn -0.318900 0.552300 0.770300
vn -0.552300 0.318900 0.770300
vn -0.637700 0.000000 0.770300
vn -0.552300 -0.318900 0.770300
vn -0.318900 -0.552300 0.770300
vn 0.000000 -0.637700 0.770300
vn 0.318900 -0.552300 0.770300
vn 0.552300 -0.318900 0.770300
vn 0.776500 0.448300 -0.442800
vn 0.896600 0.000000 -0.442800
vn 0.430600 0.745800 -0.508300
vn 0.000000 0.861200 -0.508300
vn -0.430600 0.745800 -0.508300
vn -0.745800 0.430600 -0.508300
vn -0.861200 0.000000 -0.508300
vn -0.745800 -0.430600 -0.508300
vn -0.430600 -0.745800 -0.508300
vn 0.000000 -0.861200 -0.508300
vn 0.430600 -0.745800 -0.508300
vn 0.745800 -0.430600 -0.508300
vn 0.269300 0.155500 0.950400
vn 0.311000 0.000000 0.950400
vn 0.448300 0.776500 -0.442800
vn 0.000000 0.896600 -0.442800
vn -0.448300 0.776500 -0.442800
vn -0.776500 0.448300 -0.442800
vn -0.896600 0.000000 -0.442800
vn -0.776500 -0.448300 -0.442800
vn -0.448300 -0.776500 -0.442800
vn 0.000000 -0.896600 -0.442800
vn 0.448300 -0.776500 -0.442800
vn 0.776500 -0.448300 -0.442800
vn -0.010000 -0.005800 0.999900
vn -0.011600 0.000000 0.999900
vn 0.155500 0.269300 0.950400
vn 0.000000 0.311000 0.950400
vn -0.155500 0.269300 0.950400
vn -0.269300 0.155500 0.950400
vn -0.311000 0.000000 0.950400
vn -0.269300 -0.155500 0.950400
vn -0.155500 -0.269300 0.950400
vn 0.000000 -0.311000 0.950400
vn 0.155500 -0.269300 0.950400
vn 0.269300 -0.155500 0.950400
vn 0.863400 0.498500 0.078000
vn 0.996900 0.000000 0.078000
vn -0.005800 -0.010000 0.999900
vn 0.000000 -0.011600 0.999900
vn 0.005800 -0.010000 0.999900
vn 0.010000 -0.005800 0.999900
vn 0.011600 0.000000 0.999900
vn 0.010000 0.005800 0.999900
vn 0.005800 0.010000 0.999900
vn 0.000000 0.011600 0.999900
vn -0.005800 0.010000 0.999900
vn -0.010000 0.005800 0.999900
vn 0.853800 0.493000 0.166900
vn 0.986000 0.000000 0.166900
vn 0.498500 0.863400 0.078000
vn 0.000000 0.996900 0.078000
vn -0.498500 0.863400 0.078000
vn -0.863400 0.498500 0.078000
vn -0.996900 0.000000 0.078000
vn -0.863400 -0.498500 0.078000
vn -0.498500 -0.863400 0.078000
vn 0.000000 -0.996900 0.078000
vn 0.498500 -0.863400 0.078000
vn 0.863400 -0.498500 0.078000
vn 0.795100 0.459000 0.396300
vn 0.918100 0.000000 0.396300
vn 0.493000 0.853800 0.166900
vn 0.000000 0.986000 0.166900
vn -0.493000 0.853800 0.166900
vn -0.853800 0.493000 0.166900
vn -0.986000 0.000000 0.166900
vn -0.853800 -0.493000 0.166900
vn -0.493000 -0.853800 0.166900
vn 0.000000 -0.986000 0.166900
vn 0.493000 -0.853800 0.166900
vn 0.853800 -0.493000 0.166900
vn 0.504600 0.291300 0.812700
vn 0.582700 0.000000 0.812700
vn 0.459000 0.795100 0.396300
vn 0.000000 0.918100 0.396300
vn -0.459000 0.795100 0.396300
vn -0.795100 0.459000 0.396300
vn -0.918100 0.000000 0.396300
vn -0.795100 -0.459000 0.396300
vn -0.459000 -0.795100 0.396300
vn 0.000000 -0.918100 0.396300
vn 0.459000 -0.795100 0.396300
vn 0.795100 -0.459000 0.396300
vn 0.114400 0.066000 0.991200
vn 0.132100 0.000000 0.991200
vn 0.291300 0.504600 0.812700
vn 0.000000 0.582700 0.812700
vn -0.291300 0.504600 0.812700
vn -0.504600 0.291300 0.812700
vn -0.582700 0.000000 0.812700
vn -0.504600 -0.291300 0.812700
vn -0.291300 -0.504600 0.812700
vn 0.000000 -0.582700 0.812700
vn 0.291300 -0.504600 0.812700
vn 0.504600 -0.291300 0.812700
vn 0.114400 -0.066000 0.991200
vn 0.066000 0.114400 0.991200
vn 0.000000 0.132100 0.991200
vn -0.066000 0.114400 0.991200
vn -0.114400 0.066000 0.991200
vn -0.132100 0.000000 0.991200
vn -0.114400 -0.066000 0.991200
vn -0.066000 -0.114400 0.991200
vn 0.000000 -0.132100 0.991200
vn 0.066000 -0.114400 0.991200
usemtl None
s 1
f 1/1/1 2/2/2 4/3/3 3/4/4
f 3/4/4 4/3/3 6/5/5 5/6/6
f 5/6/6 6/5/5 8/7/7 7/8/8
f 7/8/8 8/7/7 10/9/9 9/10/10
f 9/10/10 10/9/9 12/11/11 11/12/12
f 11/12/12 12/11/11 14/13/13 13/14/14
f 13/14/14 14/13/13 16/15/15 15/16/16
f 15/16/16 16/15/15 18/17/17 17/18/18
f 17/18/18 18/17/17 20/19/19 19/20/20
f 19/21/20 20/22/19 22/23/21 21/24/22
f 2/2/2 24/25/23 36/26/24 25/27/25
f 23/28/26 24/25/23 2/2/2 1/1/1
f 21/24/22 22/23/21 24/25/23 23/28/26
f 1/29/1 3/30/4 5/31/6 7/32/8 9/33/10 11/34/12 13/35/14 15/36/16 17/37/18 19/38/20 21/39/22 23/40/26
f 25/27/25 36/26/24 48/41/27 37/42/28
f 24/25/23 22/23/21 35/43/29 36/26/24
f 22/23/21 20/22/19 34/44/30 35/43/29
f 20/19/19 18/17/17 33/45/31 34/46/30
f 18/17/17 16/15/15 32/47/32 33/45/31
f 16/15/15 14/13/13 31/48/33 32/47/32
f 14/13/13 12/11/11 30/49/34 31/48/33
f 12/11/11 10/9/9 29/50/35 30/49/34
f 10/9/9 8/7/7 28/51/36 29/50/35
f 8/7/7 6/5/5 27/52/37 28/51/36
f 6/5/5 4/3/3 26/53/38 27/52/37
f 4/3/3 2/2/2 25/27/25 26/53/38
f 37/42/28 48/41/27 60/54/39 49/55/40
f 36/26/24 35/43/29 47/56/41 48/41/27
f 35/43/29 34/44/30 46/57/42 47/56/41
f 34/46/30 33/45/31 45/58/43 46/59/42
f 33/45/31 32/47/32 44/60/44 45/58/43
f 32/47/32 31/48/33 43/61/45 44/60/44
f 31/48/33 30/49/34 42/62/46 43/61/45
f 30/49/34 29/50/35 41/63/47 42/62/46
f 29/50/35 28/51/36 40/64/48 41/63/47
f 28/51/36 27/52/37 39/65/49 40/64/48
f 27/52/37 26/53/38 38/66/50 39/65/49
f 26/53/38 25/27/25 37/42/28 38/66/50
f 49/55/40 60/54/39 72/67/51 61/68/52
f 48/41/27 47/56/41 59/69/53 60/54/39
f 47/56/41 46/57/42 58/70/54 59/69/53
f 46/59/42 45/58/43 57/71/55 58/72/54
f 45/58/43 44/60/44 56/73/56 57/71/55
f 44/60/44 43/61/45 55/74/57 56/73/56
f 43/61/45 42/62/46 54/75/58 55/74/57
f 42/62/46 41/63/47 53/76/59 54/75/58
f 41/63/47 40/64/48 52/77/60 53/76/59
f 40/64/48 39/65/49 51/78/61 52/77/60
f 39/65/49 38/66/50 50/79/62 51/78/61
f 38/66/50 37/42/28 49/55/40 50/79/62
f 61/68/52 72/67/51 84/80/63 73/81/64
f 60/54/39 59/69/53 71/82/65 72/67/51
f 59/69/53 58/70/54 70/83/66 71/82/65
f 58/72/54 57/71/55 69/84/67 70/85/66
f 57/71/55 56/73/56 68/86/68 69/84/67
f 56/73/56 55/74/57 67/87/69 68/86/68
f 55/74/57 54/75/58 66/88/70 67/87/69
f 54/75/58 53/76/59 65/89/71 66/88/70
f 53/76/59 52/77/60 64/90/72 65/89/71
f 52/77/60 51/78/61 63/91/73 64/90/72
f 51/78/61 50/79/62 62/92/74 63/91/73
f 50/79/62 49/55/40 61/68/52 62/92/74
f 73/93/64 84/94/63 96/95/75 85/96/76
f 72/67/51 71/82/65 83/97/77 84/80/63
f 71/82/65 70/83/66 82/98/78 83/97/77
f 70/85/66 69/84/67 81/99/79 82/100/78
f 69/84/67 68/86/68 80/101/80 81/99/79
f 68/86/68 67/87/69 79/102/81 80/101/80
f 67/87/69 66/88/70 78/103/82 79/102/81
f 66/88/70 65/89/71 77/104/83 78/103/82
f 65/89/71 64/90/72 76/105/84 77/104/83
f 64/90/72 63/91/73 75/106/85 76/105/84
f 63/91/73 62/92/74 74/107/86 75/106/85
f 62/92/74 61/68/52 73/81/64 74/107/86
f 85/96/76 96/95/75 108/108/87 97/109/88
f 84/94/63 83/110/77 95/111/89 96/95/75
f 83/110/77 82/112/78 94/113/90 95/111/89
f 82/114/78 81/115/79 93/116/91 94/117/90
f 81/115/79 80/118/80 92/119/92 93/116/91
f 80/118/80 79/120/81 91/121/93 92/119/92
f 79/120/81 78/122/82 90/123/94 91/121/93
f 78/122/82 77/124/83 89/125/95 90/123/94
f 77/124/83 76/126/84 88/127/96 89/125/95
f 76/126/84 75/128/85 87/129/97 88/127/96
f 75/128/85 74/130/86 86/131/98 87/129/97
f 74/130/86 73/93/64 85/96/76 86/131/98
f 97/109/88 108/108/87 120/132/99 109/133/100
f 96/95/75 95/111/89 107/134/101 108/108/87
f 95/111/89 94/113/90 106/135/102 107/134/101
f 94/117/90 93/116/91 105/136/103 106/137/102
f 93/116/91 92/119/92 104/138/104 105/136/103
f 92/119/92 91/121/93 103/139/105 104/138/104
f 91/121/93 90/123/94 102/140/106 103/139/105
f 90/123/94 89/125/95 101/141/107 102/140/106
f 89/125/95 88/127/96 100/142/108 101/141/107
f 88/127/96 87/129/97 99/143/109 100/142/108
f 87/129/97 86/131/98 98/144/110 99/143/109
f 86/131/98 85/96/76 97/109/88 98/144/110
f 109/133/100 120/132/99 132/145/111 121/146/112
f 108/108/87 107/134/101 119/147/113 120/132/99
f 107/134/101 106/135/102 118/148/114 119/147/113
f 106/137/102 105/136/103 117/149/115 118/150/114
f 105/136/103 104/138/104 116/151/116 117/149/115
f 104/138/104 103/139/105 115/152/117 116/151/116
f 103/139/105 102/140/106 114/153/118 115/152/117
f 102/140/106 101/141/107 113/154/119 114/153/118
f 101/141/107 100/142/108 112/155/120 113/154/119
f 100/142/108 99/143/109 111/156/121 112/155/120
f 99/143/109 98/144/110 110/157/122 111/156/121
f 98/144/110 97/109/88 109/133/100 110/157/122
f 121/146/112 132/145/111 144/158/123 133/159/124
f 120/132/99 119/147/113 131/160/125 132/145/111
f 119/147/113 118/148/114 130/161/126 131/160/125
f 118/150/114 117/149/115 129/162/127 130/163/126
f 117/149/115 116/151/116 128/164/128 129/162/127
f 116/151/116 115/152/117 127/165/129 128/164/128
f 115/152/117 114/153/118 126/166/130 127/165/129
f 114/153/118 113/154/119 125/167/131 126/166/130
f 113/154/119 112/155/120 124/168/132 125/167/131
f 112/155/120 111/156/121 123/169/133 124/168/132
f 111/156/121 110/157/122 122/170/134 123/169/133
f 110/157/122 109/133/100 121/146/112 122/170/134
f 134/171/135 133/172/124 144/173/123 143/174/136 142/175/137 141/176/138 140/177/139 139/178/140 138/179/141 137/180/142 136/181/143 135/182/144
f 132/145/111 131/160/125 143/183/136 144/158/123
f 131/160/125 130/161/126 142/184/137 143/183/136
f 130/163/126 129/162/127 141/185/138 142/186/137
f 129/162/127 128/164/128 140/187/139 141/185/138
f 128/164/128 127/165/129 139/188/140 140/187/139
f 127/165/129 126/166/130 138/189/141 139/188/140
f 126/166/130 125/167/131 137/190/142 138/189/141
f 125/167/131 124/168/132 136/191/143 137/190/142
f 124/168/132 123/169/133 135/192/144 136/191/143
f 123/169/133 122/170/134 134/193/135 135/192/144
f 122/170/134 121/146/112 133/159/124 134/193/135
