# Blender v2.70 (sub 0) OBJ File: 'NewCrowbarUV.blend'
# www.blender.org
mtllib CrowbarLPnUVoptimized.mtl
o ZBrush_defualt_group
v 1.116481 0.042197 -0.768108
v 0.975774 0.003970 -1.039039
v 0.974918 0.036371 -1.113786
v 1.111621 0.044838 -0.797152
v 0.877236 0.178876 -1.083925
v 1.072471 0.137495 -0.795209
v 1.108139 0.129212 -0.769881
v 0.946175 0.181158 -1.063207
v 1.113115 0.134002 -0.793198
v 0.960594 0.180211 -1.123480
v 0.879290 0.038376 -1.074826
v 1.066887 0.047259 -0.797208
v 1.107676 -0.185301 -0.766974
v 0.947095 -0.237250 -1.062907
v 0.964810 -0.239968 -1.118954
v 1.113100 -0.192017 -0.787512
v 0.976704 -0.049698 -1.037647
v 1.110647 -0.099393 -0.767230
v 1.110900 -0.102463 -0.800507
v 0.974361 -0.083974 -1.116444
v 1.065488 -0.099499 -0.803003
v 0.881041 -0.082573 -1.074320
v 0.876946 -0.235885 -1.082875
v 1.071096 -0.190684 -0.798699
v 0.954145 -0.010922 -1.079639
v 0.946467 -0.005237 -1.154778
v 0.944473 -0.040144 -1.156346
v 0.953396 -0.032285 -1.080663
v 0.871506 -0.005192 -1.111287
v 0.868633 -0.040108 -1.112127
v 0.817188 -0.254821 -1.170728
v 0.849323 -0.271315 -1.236495
v 0.844771 0.209762 -1.238465
v 0.824940 0.191843 -1.168433
v 0.912048 -0.253268 -1.232346
v 0.914588 0.195705 -1.232769
v 0.748465 -0.194349 -1.263119
v 0.804667 -0.225760 -1.317005
v 0.799949 0.174558 -1.317516
v 0.748278 0.139271 -1.263032
v 0.870637 -0.196858 -1.334586
v 0.870894 0.141090 -1.336271
v 0.616010 -0.123559 -1.445609
v 0.692424 -0.182352 -1.508635
v 0.692375 0.125051 -1.508911
v 0.615698 0.069443 -1.446585
v 0.784437 -0.122671 -1.544182
v 0.782841 0.069940 -1.544586
v 0.509127 0.056122 -1.604751
v 0.510574 -0.109118 -1.599604
v 0.801122 -0.022320 -1.170707
v 0.918608 -0.018875 -1.240259
v 0.430298 0.053306 -1.681917
v 0.429327 -0.102553 -1.677943
v 0.695020 -0.097213 -1.722085
v 0.695015 0.040529 -1.722086
v 0.599872 -0.163595 -1.660682
v 0.600610 0.106636 -1.661945
v 0.331437 0.051446 -1.709895
v 0.330126 -0.100227 -1.707975
v 0.542094 -0.095216 -1.872478
v 0.542478 0.038552 -1.872825
v 0.487117 -0.160584 -1.777226
v 0.487836 0.104296 -1.776894
v 0.230035 0.049190 -1.682845
v 0.229558 -0.098718 -1.681590
v 0.331064 -0.094105 -1.931257
v 0.331294 0.042850 -1.931027
v 0.330881 -0.158926 -1.821571
v 0.331775 0.103149 -1.819891
v 0.155240 0.046296 -1.606773
v 0.158889 -0.094855 -1.606265
v 0.116585 -0.095693 -1.873854
v 0.117237 0.040601 -1.871698
v 0.172472 -0.159366 -1.779331
v 0.172160 0.104062 -1.781193
v 0.126016 0.039978 -1.048141
v 0.125791 -0.095102 -1.029623
v -0.044230 -0.094181 -1.717320
v -0.044444 0.038814 -1.714660
v 0.059715 -0.160502 -1.661822
v 0.055038 0.105069 -1.662694
v 0.103563 0.048733 3.799760
v 0.107788 -0.104306 3.780577
v -0.104536 -0.091400 -1.064424
v -0.107717 0.040370 -1.064499
v 0.009681 -0.161676 -1.057650
v 0.010162 0.107035 -1.030682
v 0.011352 0.097143 4.636025
v 0.010882 -0.164878 4.635015
v -0.112887 -0.101727 3.745259
v -0.113203 0.047079 3.766744
v -0.002773 -0.169006 3.757407
v -0.002590 0.113788 3.777453
v -0.142809 0.158169 4.975493
v -0.143470 -0.217227 4.973426
v -0.147732 -0.149131 4.588861
v -0.147660 0.087943 4.588825
v -0.070162 -0.200738 4.612938
v -0.073553 0.139893 4.612997
v -0.181822 0.179230 4.963770
v -0.217052 0.172101 4.952282
v -0.214803 -0.226175 4.952364
v -0.183775 -0.235150 4.957655
v -0.275535 -0.213691 5.217341
v -0.296659 -0.224960 5.227559
v -0.297462 0.166139 5.229768
v -0.277749 0.157616 5.220778
v -0.301935 -0.215358 5.212016
v -0.303686 0.160534 5.212005
v -0.300850 0.039177 5.234888
v -0.276850 0.035444 5.215637
v -0.301155 0.039319 5.212092
v -0.279521 -0.088801 5.221080
v -0.300907 -0.087008 5.234626
v -0.301394 -0.087482 5.213085
v -0.190633 -0.025215 5.075116
v -0.223779 -0.025625 5.102307
v -0.243450 -0.026830 5.051955
v -0.248893 -0.025258 5.103736
v -0.244644 -0.024974 5.118996
v -0.108711 -0.096563 1.340417
v 0.003454 -0.165341 1.349879
v 0.116789 -0.099704 1.375477
v -0.110460 0.043725 1.351122
v 0.003786 0.110412 1.373385
v 0.114789 0.044355 1.375810
vt 0.813694 0.565163
vt 0.787082 0.497544
vt 0.793362 0.479749
vt 0.813721 0.558179
vt 0.845872 0.469999
vt 0.842155 0.548994
vt 0.838168 0.558362
vt 0.835151 0.481940
vt 0.834434 0.554352
vt 0.825195 0.472105
vt 0.843898 0.560057
vt 0.865456 0.561920
vt 0.863923 0.569075
vt 0.842077 0.565793
vt 0.879211 0.473149
vt 0.862935 0.548840
vt 0.722592 0.567436
vt 0.716839 0.487023
vt 0.726365 0.476871
vt 0.725902 0.563330
vt 0.890929 0.497324
vt 0.770974 0.498890
vt 0.749948 0.570713
vt 0.747953 0.562783
vt 0.762447 0.480381
vt 0.948852 0.552904
vt 0.969170 0.547830
vt 0.972011 0.552454
vt 0.951517 0.560598
vt 0.946911 0.539799
vt 0.915677 0.469547
vt 0.952049 0.457877
vt 0.967600 0.535920
vt 0.781408 0.487639
vt 0.782125 0.469318
vt 0.773566 0.469202
vt 0.776281 0.487581
vt 0.717773 0.556916
vt 0.703673 0.475729
vt 0.909515 0.495576
vt 0.891949 0.464592
vt 0.896376 0.487253
vt 0.901516 0.486360
vt 0.901443 0.462731
vt 0.701579 0.450639
vt 0.715390 0.442381
vt 0.833480 0.439317
vt 0.844881 0.448348
vt 0.726914 0.449310
vt 0.822508 0.447162
vt 0.697661 0.419623
vt 0.718613 0.419840
vt 0.831752 0.419394
vt 0.850814 0.420900
vt 0.735950 0.424321
vt 0.813997 0.423526
vt 0.698743 0.360017
vt 0.727051 0.364065
vt 0.825604 0.365873
vt 0.853760 0.363203
vt 0.753907 0.370888
vt 0.799472 0.371269
vt 0.902261 0.353661
vt 0.846361 0.313842
vt 0.889784 0.307217
vt 0.893792 0.440579
vt 0.930905 0.405916
vt 0.951374 0.431068
vt 0.777792 0.448629
vt 0.842654 0.283871
vt 0.883783 0.278737
vt 0.763083 0.328319
vt 0.790695 0.329242
vt 0.707731 0.313194
vt 0.736059 0.322395
vt 0.817903 0.323580
vt 0.839027 0.255226
vt 0.880687 0.252757
vt 0.765903 0.290272
vt 0.788098 0.290712
vt 0.711851 0.283559
vt 0.742775 0.288115
vt 0.811932 0.288707
vt 0.840739 0.225471
vt 0.880411 0.226406
vt 0.767442 0.256666
vt 0.788486 0.256941
vt 0.711546 0.254377
vt 0.744838 0.255497
vt 0.810455 0.256405
vt 0.845299 0.196231
vt 0.880904 0.199979
vt 0.767514 0.223817
vt 0.788649 0.224142
vt 0.713362 0.224365
vt 0.745120 0.223226
vt 0.810499 0.225146
vt 0.860915 0.058588
vt 0.894199 0.056160
vt 0.768651 0.190842
vt 0.789941 0.190572
vt 0.712680 0.194423
vt 0.743173 0.191373
vt 0.814344 0.192746
vt 0.224454 0.979846
vt 0.189341 0.978740
vt 0.205364 0.384571
vt 0.242860 0.391051
vt 0.765549 0.056124
vt 0.797638 0.056678
vt 0.700890 0.051466
vt 0.733679 0.056275
vt 0.830404 0.051385
vt 0.206691 0.177733
vt 0.270632 0.180110
vt 0.125640 0.982819
vt 0.091297 0.984517
vt 0.105875 0.392711
vt 0.142727 0.388318
vt 0.059407 0.981472
vt 0.027680 0.974568
vt 0.042513 0.385490
vt 0.074123 0.390094
vt 0.157908 0.978347
vt 0.174515 0.387613
vt 0.195001 0.091401
vt 0.284075 0.087356
vt 0.097210 0.177207
vt 0.159166 0.180467
vt 0.050811 0.172490
vt 0.073152 0.173722
vt 0.182557 0.177851
vt 0.084996 0.085563
vt 0.176245 0.090393
vt 0.066748 0.085028
vt 0.077396 0.086114
vt 0.184751 0.090724
vt 0.082310 0.025075
vt 0.087236 0.021932
vt 0.182836 0.029900
vt 0.186591 0.033648
vt 0.090003 0.025410
vt 0.179960 0.033342
vt 0.210158 0.021127
vt 0.211935 0.028164
vt 0.155070 0.027828
vt 0.155622 0.022558
vt 0.281917 0.014265
vt 0.279664 0.020112
vt 0.250075 0.021219
vt 0.248668 0.015256
vt 0.118072 0.019474
vt 0.117619 0.024429
vt 0.235503 0.062173
vt 0.234132 0.051606
vt 0.132542 0.063238
vt 0.133916 0.051376
vt 0.233115 0.045148
vt 0.134365 0.046853
vt 0.569555 0.978562
vt 0.536270 0.980990
vt 0.552633 0.393865
vt 0.587746 0.394971
vt 0.472994 0.979079
vt 0.440905 0.978525
vt 0.454590 0.399643
vt 0.488932 0.397945
vt 0.409035 0.978677
vt 0.376246 0.973868
vt 0.390972 0.389693
vt 0.422699 0.396597
vt 0.505760 0.973786
vt 0.521200 0.393472
vn 0.447829 -0.454299 0.770074
vn 0.239204 -0.965697 0.100803
vn 0.915738 -0.217078 -0.338054
vn 0.909452 -0.328166 -0.255257
vn -0.582232 0.648274 0.490616
vn -0.497421 0.632374 0.593799
vn 0.386395 0.526475 0.757286
vn 0.063082 0.989929 0.126591
vn 0.781335 0.614521 -0.108860
vn 0.713706 0.663381 -0.224677
vn -0.690115 -0.321757 0.648183
vn -0.641316 -0.463942 0.611072
vn 0.364544 -0.499100 0.786096
vn 0.014557 -0.986694 0.161748
vn 0.708792 -0.668691 -0.224494
vn 0.760430 -0.648274 -0.037996
vn 0.250465 0.960051 0.124699
vn 0.396985 0.459120 0.794733
vn 0.919584 0.325236 -0.220374
vn 0.916288 0.214759 -0.337992
vn -0.657674 0.474288 0.585192
vn -0.681234 0.328288 0.654286
vn -0.568102 -0.638325 0.519364
vn -0.539506 -0.611194 0.579089
vn 0.524613 -0.660573 0.537004
vn 0.944639 -0.249397 -0.213080
vn 0.949950 0.248207 -0.189611
vn 0.554949 0.612659 0.562700
vn -0.491653 -0.321818 0.809107
vn -0.502823 0.325388 0.800775
vn -0.621601 -0.685781 0.378521
vn -0.109745 -0.974029 -0.198004
vn -0.132267 0.978545 -0.157781
vn -0.613025 0.683859 0.395581
vn 0.651906 -0.670797 -0.353557
vn 0.659597 0.673086 -0.334391
vn -0.800043 -0.496261 0.337077
vn -0.145726 -0.947752 -0.283731
vn -0.160527 0.956847 -0.242103
vn -0.787530 0.496231 0.365398
vn 0.712699 -0.485000 -0.506729
vn 0.709738 0.491989 -0.504135
vn -0.771569 -0.477126 0.420728
vn -0.061953 -0.988617 -0.137059
vn -0.065432 0.987548 -0.142918
vn -0.771386 0.481429 0.416120
vn 0.755333 -0.466140 -0.460585
vn 0.746757 0.478164 -0.462233
vn -0.662069 0.544572 0.514817
vn -0.677633 -0.522721 0.517197
vn -0.785272 0.005860 0.619098
vn 0.922117 0.000031 -0.386822
vn -0.414869 0.587756 0.694540
vn -0.436750 -0.549211 0.712455
vn 0.702689 -0.455641 -0.546403
vn 0.702048 0.455611 -0.547258
vn 0.015381 -0.996338 -0.083895
vn 0.027406 0.995331 -0.092349
vn -0.016785 0.587756 0.808832
vn -0.015870 -0.557298 0.830134
vn 0.440901 -0.464553 -0.767968
vn 0.444258 0.462600 -0.767174
vn 0.043367 -0.993500 -0.105106
vn 0.056978 0.992309 -0.109836
vn 0.406079 0.580218 0.705985
vn 0.420423 -0.554155 0.718406
vn 0.002441 -0.459792 -0.887997
vn 0.003540 0.474075 -0.880459
vn -0.003662 -0.993866 -0.110416
vn -0.001038 0.993683 -0.112033
vn 0.744072 0.586230 0.320383
vn 0.764580 -0.552599 0.331706
vn -0.439344 -0.464003 -0.769158
vn -0.439802 0.471511 -0.764336
vn -0.046907 -0.995117 -0.086734
vn -0.061373 0.992737 -0.103366
vn 0.862209 0.505661 0.029145
vn 0.868007 -0.495895 0.024781
vn -0.800073 -0.459822 -0.385235
vn -0.801355 0.459395 -0.383007
vn -0.102847 -0.993835 -0.040651
vn -0.116489 0.991729 -0.053804
vn 0.869808 -0.493362 0.002472
vn 0.865932 0.500137 0.002655
vn 0.870693 0.490127 0.040040
vn 0.872707 -0.487167 0.031983
vn -0.871670 -0.488327 -0.041169
vn -0.873470 0.484878 -0.043245
vn -0.022004 -0.999725 -0.002838
vn -0.010712 0.999908 -0.003418
vn 0.856044 0.482315 0.185736
vn 0.844264 -0.503861 0.182501
vn -0.869991 0.493057 -0.002075
vn -0.869350 -0.494125 -0.002350
vn -0.873775 -0.485275 -0.031404
vn -0.873623 0.485458 -0.032685
vn -0.012543 -0.999908 -0.001495
vn -0.009522 -0.999695 -0.022584
vn 0.003998 0.999969 -0.000946
vn 0.003967 0.999817 -0.017975
vn 0.776940 0.538224 0.326548
vn 0.762444 -0.558214 0.327128
vn -0.857784 -0.490677 -0.152959
vn -0.858455 0.489334 -0.153539
vn 0.011902 -0.996948 -0.076785
vn 0.037385 0.996429 -0.075564
vn -0.789544 -0.561449 -0.247719
vn -0.765313 0.595996 -0.243019
vn 0.002747 -0.999542 -0.029817
vn 0.072085 0.997375 -0.003052
vn 0.665365 -0.434706 0.606861
vn -0.239479 -0.763604 0.599597
vn -0.226112 0.714530 0.662008
vn 0.683248 0.421064 0.596515
vn -0.902097 -0.420637 -0.096072
vn -0.863216 0.498733 -0.077883
vn -0.362865 -0.367718 0.856197
vn 0.633992 -0.357677 0.685598
vn -0.938719 -0.342814 -0.035646
vn 0.642720 0.304636 0.702902
vn -0.375683 0.396283 0.837733
vn -0.940153 0.337931 -0.043214
vn 0.861782 -0.001617 0.507248
vn 0.625904 0.011811 0.779778
vn -0.960295 -0.004364 -0.278909
vn -0.998230 -0.013398 -0.057833
vn -0.298441 -0.033570 0.953825
usemtl defaultMat
s 1
f 1/1/1 2/2/2 3/3/3 4/4/4
f 5/5/5 6/6/6 7/7/7 8/8/8
f 8/8/8 7/7/7 9/9/9 10/10/10
f 7/11/7 1/12/1 4/13/4 9/14/9
f 4/4/4 3/3/3 10/10/10 9/9/9
f 6/6/6 5/5/5 11/15/11 12/16/12
f 13/17/13 14/18/14 15/19/15 16/20/16
f 2/21/2 1/12/1 12/16/12 11/15/11
f 17/22/17 18/23/18 19/24/19 20/25/20
f 18/26/18 13/27/13 16/28/16 19/29/19
f 16/20/16 15/19/15 20/25/20 19/24/19
f 21/30/21 22/31/22 23/32/23 24/33/24
f 2/2/2 25/34/25 26/35/26 3/3/3
f 17/22/17 20/25/20 27/36/27 28/37/28
f 28/37/28 27/36/27 26/35/26 25/34/25
f 1/12/1 7/11/7 6/6/6 12/16/12
f 24/38/24 23/39/23 14/18/14 13/17/13
f 22/31/22 21/30/21 18/26/18 17/40/17
f 21/30/21 24/33/24 13/27/13 18/26/18
f 11/15/11 29/41/29 25/42/25 2/21/2
f 22/31/22 17/40/17 28/43/28 30/44/30
f 30/44/30 28/43/28 25/42/25 29/41/29
f 14/18/14 23/39/23 31/45/31 32/46/32
f 5/5/5 8/8/8 33/47/33 34/48/34
f 15/19/15 14/18/14 32/46/32 35/49/35
f 8/8/8 10/10/10 36/50/36 33/47/33
f 32/46/32 31/45/31 37/51/37 38/52/38
f 34/48/34 33/47/33 39/53/39 40/54/40
f 35/49/35 32/46/32 38/52/38 41/55/41
f 33/47/33 36/50/36 42/56/42 39/53/39
f 38/52/38 37/51/37 43/57/43 44/58/44
f 40/54/40 39/53/39 45/59/45 46/60/46
f 41/55/41 38/52/38 44/58/44 47/61/47
f 39/53/39 42/56/42 48/62/48 45/59/45
f 43/63/43 46/60/46 49/64/49 50/65/50
f 5/5/5 34/48/34 51/66/51
f 34/48/34 40/54/40 51/66/51
f 40/54/40 46/60/46 51/66/51
f 46/60/46 43/63/43 51/66/51
f 43/63/43 37/67/37 51/66/51
f 37/67/37 31/68/31 51/66/51
f 31/68/31 23/32/23 51/66/51
f 23/32/23 22/31/22 51/66/51
f 22/31/22 30/44/30 51/66/51
f 30/44/30 29/41/29 51/66/51
f 29/41/29 11/15/11 51/66/51
f 11/15/11 5/5/5 51/66/51
f 3/3/3 26/35/26 52/69/52
f 26/35/26 27/36/27 52/69/52
f 27/36/27 20/25/20 52/69/52
f 20/25/20 15/19/15 52/69/52
f 15/19/15 35/49/35 52/69/52
f 35/49/35 41/55/41 52/69/52
f 41/55/41 47/61/47 52/69/52
f 47/61/47 48/62/48 52/69/52
f 48/62/48 42/56/42 52/69/52
f 42/56/42 36/50/36 52/69/52
f 36/50/36 10/10/10 52/69/52
f 10/10/10 3/3/3 52/69/52
f 50/65/50 49/64/49 53/70/53 54/71/54
f 48/62/48 47/61/47 55/72/55 56/73/56
f 44/58/44 43/57/43 50/74/50 57/75/57
f 46/60/46 45/59/45 58/76/58 49/64/49
f 47/61/47 44/58/44 57/75/57 55/72/55
f 45/59/45 48/62/48 56/73/56 58/76/58
f 54/71/54 53/70/53 59/77/59 60/78/60
f 56/73/56 55/72/55 61/79/61 62/80/62
f 57/75/57 50/74/50 54/81/54 63/82/63
f 49/64/49 58/76/58 64/83/64 53/70/53
f 55/72/55 57/75/57 63/82/63 61/79/61
f 58/76/58 56/73/56 62/80/62 64/83/64
f 60/78/60 59/77/59 65/84/65 66/85/66
f 62/80/62 61/79/61 67/86/67 68/87/68
f 63/82/63 54/81/54 60/88/60 69/89/69
f 53/70/53 64/83/64 70/90/70 59/77/59
f 61/79/61 63/82/63 69/89/69 67/86/67
f 64/83/64 62/80/62 68/87/68 70/90/70
f 66/85/66 65/84/65 71/91/71 72/92/72
f 68/87/68 67/86/67 73/93/73 74/94/74
f 69/89/69 60/88/60 66/95/66 75/96/75
f 59/77/59 70/90/70 76/97/76 65/84/65
f 67/86/67 69/89/69 75/96/75 73/93/73
f 70/90/70 68/87/68 74/94/74 76/97/76
f 72/92/72 71/91/71 77/98/77 78/99/78
f 74/94/74 73/93/73 79/100/79 80/101/80
f 75/96/75 66/95/66 72/102/72 81/103/81
f 65/84/65 76/97/76 82/104/82 71/91/71
f 73/93/73 75/96/75 81/103/81 79/100/79
f 76/97/76 74/94/74 80/101/80 82/104/82
f 124/105/83 127/106/84 83/107/85 84/108/86
f 80/101/80 79/100/79 85/109/87 86/110/88
f 81/103/81 72/102/72 78/111/78 87/112/89
f 71/91/71 82/104/82 88/113/90 77/98/77
f 79/100/79 81/103/81 87/112/89 85/109/87
f 82/104/82 80/101/80 86/110/88 88/113/90
f 84/108/86 83/107/85 89/114/91 90/115/92
f 125/116/93 122/117/94 91/118/95 92/119/96
f 123/120/97 124/121/83 84/122/86 93/123/98
f 127/106/84 126/124/99 94/125/100 83/107/85
f 122/117/94 123/120/97 93/123/98 91/118/95
f 126/124/99 125/116/93 92/119/96 94/125/100
f 90/115/92 89/114/91 95/126/101 96/127/102
f 92/119/96 91/118/95 97/128/103 98/129/104
f 93/123/98 84/122/86 90/130/92 99/131/105
f 83/107/85 94/125/100 100/132/106 89/114/91
f 91/118/95 93/123/98 99/131/105 97/128/103
f 94/125/100 92/119/96 98/129/104 100/132/106
f 98/129/104 97/128/103 103/133/107 102/134/108
f 99/131/105 90/130/92 96/135/102 104/136/109
f 89/114/91 100/132/106 101/137/110 95/126/101
f 97/128/103 99/131/105 104/136/109 103/133/107
f 100/132/106 98/129/104 102/134/108 101/137/110
f 104/136/109 96/135/102 105/138/111 106/139/112
f 95/126/101 101/137/110 107/140/113 108/141/114
f 103/133/107 104/136/109 106/139/112 109/142/115
f 101/137/110 102/134/108 110/143/116 107/140/113
f 108/141/114 107/140/113 111/144/117 112/145/118
f 107/140/113 110/143/116 113/146/119 111/147/117
f 106/148/112 105/149/111 114/150/120 115/151/121
f 109/142/115 106/139/112 115/152/121 116/153/122
f 95/126/101 108/141/114 117/154/123
f 108/141/114 112/145/118 117/154/123
f 112/145/118 118/155/124 117/154/123
f 118/155/124 114/150/120 117/154/123
f 114/150/120 105/149/111 117/154/123
f 105/149/111 96/127/102 117/154/123
f 96/127/102 95/126/101 117/154/123
f 110/143/116 102/134/108 119/156/125
f 102/134/108 103/133/107 119/156/125
f 103/133/107 109/142/115 119/156/125
f 109/142/115 116/153/122 119/156/125
f 116/153/122 120/157/126 119/156/125
f 120/157/126 113/146/119 119/156/125
f 113/146/119 110/143/116 119/156/125
f 112/145/118 111/144/117 121/158/127 118/155/124
f 111/147/117 113/146/119 120/157/126 121/159/127
f 116/153/122 115/152/121 121/159/127 120/157/126
f 115/151/121 114/150/120 118/155/124 121/158/127
f 78/160/78 77/161/77 127/162/84 124/163/83
f 86/164/88 85/165/87 122/166/94 125/167/93
f 87/168/89 78/169/78 124/170/83 123/171/97
f 77/161/77 88/172/90 126/173/99 127/162/84
f 85/165/87 87/168/89 123/171/97 122/166/94
f 88/172/90 86/164/88 125/167/93 126/173/99
