# Blender v2.74 (sub 0) OBJ File: ''
# www.blender.org
mtllib Small_Collider.mtl
o Small_Cube.003
v 9.950276 -1.258487 139.303864
v -9.950276 -1.258487 139.303864
v -9.950238 -1.258505 29.850830
v 9.950315 -1.258505 29.850830
v 9.950276 1.258532 139.303864
v -9.950276 1.258532 139.303864
v -9.950238 1.258515 29.850830
v 9.950315 1.258515 29.850830
v -29.850830 -1.258487 139.303864
v -29.850830 1.258532 139.303864
v -29.850866 -1.258477 199.005524
v -29.850866 1.258542 199.005524
v 29.850792 -1.258477 199.005524
v 29.850792 1.258542 199.005524
v 29.850830 -1.258487 139.303864
v 29.850830 1.258532 139.303864
v -29.850866 1.258539 179.104980
v -29.850830 1.258536 159.204422
v -29.850830 -1.258484 159.204422
v -29.850830 -1.258480 179.104980
v -69.651970 1.258464 179.104935
v -69.651932 1.258461 159.204391
v -69.651932 -1.258559 159.204391
v -69.651932 -1.258555 179.104935
v 29.850830 1.258536 159.204422
v 29.850792 1.258539 179.104980
v 29.850830 -1.258480 179.104980
v 29.850830 -1.258484 159.204422
v 69.651932 1.258611 159.204422
v 69.651894 1.258614 179.104980
v 69.651932 -1.258405 179.105011
v 69.651932 -1.258409 159.204453
v 69.651894 1.258619 208.955811
v 69.651894 -1.258401 208.955811
v 139.303833 1.258619 208.955841
v 139.303833 -1.258401 208.955841
v 139.303864 1.258594 59.701694
v 139.303864 -1.258425 59.701694
v 69.651932 1.258594 59.701660
v 69.651932 -1.258425 59.701694
v -69.651970 -1.258549 218.906082
v -69.651970 1.258470 218.906082
v -189.055252 -1.258549 218.906006
v -189.055252 1.258470 218.906006
v -189.055252 -1.258565 119.403244
v -189.055252 1.258454 119.403244
v -69.651932 -1.258565 119.403282
v -69.651932 1.258454 119.403282
v 49.751419 -1.258505 29.850830
v 49.751419 1.258515 29.850830
v 49.751457 -1.258518 -49.751362
v 49.751457 1.258502 -49.751362
v -49.751305 -1.258518 -49.751400
v -49.751305 1.258502 -49.751400
v -49.751343 -1.258505 29.850830
v -49.751343 1.258515 29.850830
v 49.751419 1.258506 -19.933689
v 49.751419 1.258510 -0.961838
v 49.751419 -1.258510 -0.961838
v 49.751457 -1.258513 -19.933708
v 79.602249 1.258600 -19.933689
v 99.502800 1.258603 -0.961819
v 99.502800 -1.258416 -0.961838
v 79.602249 -1.258419 -19.933689
v 99.502838 1.258592 -69.618721
v 99.502838 -1.258427 -69.618744
v 79.602287 1.258592 -69.685089
v 79.602287 -1.258427 -69.685089
v 39.801182 -1.258427 -69.685089
v 39.801182 1.258592 -69.685089
v 39.801220 -1.258443 -169.187851
v 39.801220 1.258576 -169.187851
v 139.303986 -1.258443 -169.187836
v 139.303986 1.258576 -169.187836
v 139.303940 -1.258427 -69.685074
v 139.303940 1.258592 -69.685074
v 139.303940 1.258586 -108.822838
v 139.303940 1.258584 -120.099815
v 139.303940 -1.258435 -120.099792
v 139.303940 -1.258434 -108.822815
v 159.204498 1.258586 -108.822815
v 159.204498 1.258584 -120.099792
v 159.204498 -1.258435 -120.099777
v 159.204498 -1.258434 -108.822800
v 39.801182 1.258582 -129.055054
v 39.801182 1.258586 -108.822838
v 39.801182 -1.258434 -108.822853
v 39.801182 -1.258437 -129.055084
v -99.502686 1.258582 -129.055115
v -99.502686 1.258586 -108.822891
v -99.502686 -1.258434 -108.822914
v -99.502686 -1.258437 -129.055130
v -99.502686 1.258592 -69.021790
v -99.502686 -1.258427 -69.021805
v -298.508209 1.258592 -69.021843
v -298.508209 -1.258427 -69.021866
v -298.508209 1.258576 -168.524612
v -298.508209 -1.258443 -168.524628
v -99.502686 1.258576 -168.524551
v -99.502686 -1.258443 -168.524567
v -298.508209 1.258586 -108.822952
v -298.508209 1.258582 -132.040253
v -298.508209 -1.258434 -108.822968
v -298.508209 -1.258437 -132.040283
v -155.887558 1.258592 -69.021805
v -139.303787 1.258592 -69.021790
v -139.303787 -1.258427 -69.021805
v -155.887634 -1.258427 -69.021828
v -155.887634 1.258096 110.083168
v -139.303864 1.258096 110.083168
v -139.303864 -1.258923 110.083168
v -155.887634 -1.258923 110.083168
v -139.303864 1.258454 119.403282
v -155.920807 1.258454 119.403282
v -155.920807 -1.258565 119.403282
v -139.303864 -1.258565 119.403282
v -49.751343 1.258512 11.442795
v -49.751343 1.258509 -4.643486
v -49.751343 -1.258510 -4.643467
v -49.751343 -1.258508 11.442795
v -129.353592 1.258361 11.442757
v -129.353516 1.258359 -4.643505
v -129.353516 -1.258660 -4.643505
v -129.353592 -1.258658 11.442757
v -155.887634 -1.258782 11.376408
v -155.887634 -1.258609 -4.544038
v -155.887634 1.258410 -4.544019
v -155.887634 1.258238 11.376427
v -139.303864 1.258238 11.376446
v -139.303787 1.258410 -4.544019
v -139.303864 -1.258609 -4.544019
v -139.303864 -1.258782 11.376408
v 147.894287 1.259517 80.597221
v 147.894287 1.259520 101.492790
v 147.894257 -1.257499 101.492828
v 147.894257 -1.257502 80.597221
v 139.303864 1.258598 80.597260
v 139.303864 1.258601 101.492867
v 139.303864 -1.258418 101.492867
v 139.303864 -1.258422 80.597260
vt -1.220867 1.575178
vt 0.779746 1.575178
vt 0.779746 1.621185
vt -1.220867 1.621185
vt -5.455804 1.621185
vt -5.819551 1.621185
vt -5.819551 1.575178
vt -5.455804 1.575178
vt -1.948362 1.621185
vt -2.312111 1.621185
vt -2.312111 1.575178
vt -1.948362 1.575178
vt -4.728308 1.621185
vt -4.728308 1.575178
vt -1.584615 1.621185
vt -1.584615 1.575178
vt -5.092055 1.621185
vt -5.092055 1.575178
vt -6.547050 1.575178
vt -6.547050 1.621180
vt -4.000814 1.575180
vt -4.000814 1.621187
vt -2.493984 1.621187
vt -2.493984 1.575180
vt -2.727694 1.621187
vt -2.727694 1.575180
vt -0.147811 1.621187
vt 0.234125 1.621187
vt 0.234125 1.575180
vt -0.147811 1.575180
vt -2.675858 1.575178
vt -2.675858 1.621180
vt -8.729537 1.575178
vt -8.729537 1.621180
vt -0.857118 1.575178
vt -0.857118 1.621180
vt -7.820166 1.621180
vt -7.820166 1.575178
vt -4.364561 1.621185
vt -4.364561 1.575178
vt 1.689721 1.621185
vt 2.234740 1.621185
vt 2.234740 1.575178
vt 1.689721 1.575178
vt -6.183300 1.621185
vt -6.183300 1.575178
vt 1.116213 1.621185
vt 1.116213 1.575178
vt 1.342950 1.621185
vt 1.342950 1.575178
vt -3.818937 1.575180
vt -3.818937 1.621187
vt -3.455189 1.621187
vt -3.455189 1.575180
vt 2.597880 1.621187
vt 2.597880 1.575180
vt 2.599095 1.575180
vt 2.599095 1.621187
vt -4.546432 1.575180
vt -4.546432 1.621187
vt 3.684273 1.621187
vt 3.684273 1.575180
vt 4.417833 1.575180
vt 4.417833 1.621187
vt 3.314463 1.621187
vt 3.314463 1.575180
vt 3.520587 1.575180
vt 3.520587 1.621187
vt -2.363944 1.621187
vt -2.363944 1.575180
vt -7.092669 1.621187
vt -7.092669 1.575180
vt 2.586971 1.575180
vt 2.586971 1.621187
vt -8.123288 1.621187
vt -8.123290 1.575180
vt -10.730149 1.575180
vt -10.730149 1.621187
vt 3.738839 1.621187
vt 3.738839 1.575180
vt 4.405710 1.575180
vt 4.405710 1.621187
vt -10.730149 4.557247
vt 0.000000 0.000000
vt 1.117426 1.575174
vt 1.117426 1.621180
vt -0.686763 1.621173
vt -0.686763 1.575170
vt -8.123897 1.575178
vt -8.123897 1.621180
vt 1.410244 1.621185
vt 1.410241 1.575178
vt -7.638291 1.575178
vt -7.638291 1.621180
vt 1.408425 1.621180
vt 1.408425 1.575178
vt -0.529744 1.621202
vt -0.529746 1.575198
vt -2.570675 1.621202
vt -2.570677 1.575198
vn 1.000000 0.000000 0.000000
vn -1.000000 0.000000 -0.000000
vn 0.000000 0.000000 1.000000
vn 0.000000 0.000000 -1.000000
vn -0.001700 0.000000 -1.000000
vn 1.000000 0.000000 0.003600
vn 0.010000 -0.000000 1.000000
vn 0.006700 0.000000 -1.000000
usemtl Material.001
s off
f 2/1/1 3/2/1 7/3/1 6/4/1
f 5/4/2 8/3/2 4/2/2 1/1/2
f 6/5/3 10/6/3 9/7/3 2/8/3
f 17/9/1 12/10/1 11/11/1 20/12/1
f 12/6/4 14/13/4 13/14/4 11/7/4
f 25/15/2 16/4/2 15/1/2 28/16/2
f 16/13/3 5/17/3 1/18/3 15/14/3
f 10/4/1 18/15/1 19/16/1 9/1/1
f 20/7/4 24/19/4 21/20/4 17/6/4
f 18/6/3 22/20/3 23/19/3 19/7/3
f 14/10/2 26/9/2 27/12/2 13/11/2
f 28/14/3 32/21/3 29/22/3 25/13/3
f 26/13/4 30/22/4 31/21/4 27/14/4
f 30/9/1 33/23/1 34/24/1 31/12/1
f 33/22/4 35/25/4 36/26/4 34/21/4
f 137/27/2 37/28/2 38/29/2 140/30/2
f 37/25/3 39/22/3 40/21/3 38/26/3
f 39/28/1 29/15/1 32/16/1 40/29/1
f 21/9/2 24/12/2 41/31/2 42/32/2
f 42/20/4 41/19/4 43/33/4 44/34/4
f 44/32/1 43/31/1 45/35/1 46/36/1
f 113/37/3 116/38/3 47/19/3 48/20/3
f 48/36/2 47/35/2 23/16/2 22/15/2
f 8/17/4 50/39/4 49/40/4 4/18/4
f 57/41/2 52/42/2 51/43/2 60/44/2
f 52/39/3 54/45/3 53/46/3 51/40/3
f 117/47/1 56/3/1 55/2/1 120/48/1
f 56/45/4 7/5/4 3/8/4 55/46/4
f 50/3/2 58/49/2 59/50/2 49/2/2
f 60/40/3 64/51/3 61/52/3 57/39/3
f 58/39/4 62/53/4 63/54/4 59/40/4
f 62/49/2 65/55/2 66/56/2 63/50/2
f 64/44/1 68/57/1 67/58/1 61/41/1
f 67/52/4 68/51/4 69/59/4 70/60/4
f 85/61/1 88/62/1 71/63/1 72/64/1
f 72/60/3 71/59/3 73/26/3 74/25/3
f 77/65/2 80/66/2 75/57/2 76/58/2
f 76/25/5 75/26/5 66/54/5 65/53/5
f 74/64/2 73/63/2 79/67/2 78/68/2
f 80/26/4 77/25/4 81/69/4 84/70/4
f 78/25/3 79/26/3 83/70/3 82/69/3
f 70/58/1 69/57/1 87/66/1 86/65/1
f 88/59/3 85/60/3 89/71/3 92/72/3
f 90/65/2 89/61/2 92/62/2 91/66/2
f 86/60/4 87/59/4 91/72/4 90/71/4
f 90/65/2 91/66/2 94/73/2 93/74/2
f 105/75/4 108/76/4 96/77/4 95/78/4
f 102/79/1 104/80/1 98/81/1 97/82/1
f 97/78/3 98/77/3 100/72/3 99/71/3
f 99/82/2 100/81/2 92/62/2 89/61/2
f 95/74/1 96/73/1 103/66/1 101/65/1
f 102/80/1 101/83/1 103/65/1 104/84/1
f 93/71/4 94/72/4 107/38/4 106/37/4
f 125/85/1 128/86/1 109/87/1 112/88/1
f 129/86/2 132/85/2 111/88/2 110/87/2
f 46/34/3 45/33/3 115/89/3 114/90/3
f 113/36/2 110/87/2 111/88/2 116/35/2
f 114/36/6 115/35/6 112/88/6 109/87/6
f 54/42/1 118/91/1 119/92/1 53/43/1
f 120/46/4 124/93/4 121/94/4 117/45/4
f 118/45/3 122/94/3 123/93/3 119/46/3
f 108/73/1 105/74/1 127/95/1 126/96/1
f 126/96/1 127/95/1 128/86/1 125/85/1
f 106/74/2 107/73/2 131/96/2 130/95/2
f 130/37/7 131/38/7 123/93/7 122/94/7
f 124/93/8 132/38/8 129/37/8 121/94/8
f 134/97/2 133/27/2 136/30/2 135/98/2
f 35/23/2 138/97/2 139/98/2 36/24/2
f 139/26/4 138/25/4 134/99/4 135/100/4
f 137/25/3 140/26/3 136/100/3 133/99/3
f 82/84/2 83/69/2 84/84/2 81/70/2
